<svg width="288" height="107" viewBox="0 0 288 107" fill="none" xmlns="http://www.w3.org/2000/svg">
<path d="M0 106.598H8.04504C12.1178 106.598 14.0285 104.486 14.0285 101.519C14.0285 99.1058 12.7715 97.4968 10.1569 96.994C12.4698 96.4409 13.5257 95.033 13.5257 92.9715C13.5257 90.3568 11.615 88.245 7.54223 88.245H0.0502815V106.598H0ZM6.98913 98.8041C8.49757 98.8041 9.55349 99.5583 9.55349 101.067C9.55349 102.676 8.54785 103.329 6.98913 103.329H4.37449V98.7538H6.98913V98.8041V98.8041ZM6.48631 91.463C7.99476 91.463 9.05067 92.1167 9.05067 93.6251C9.05067 95.1336 8.04504 95.7872 6.48631 95.7872H4.37449V91.463H6.48631V91.463ZM30.2695 88.1947H25.7441L18.8556 106.598H23.4312L24.6882 102.776H31.3254L32.5824 106.598H37.2083L30.2695 88.1947V88.1947ZM28.0068 92.6195L30.1689 99.4075H25.7441L28.0068 92.6195V92.6195ZM60.1367 88.1947H55.9633V100.514L48.1194 88.1947H43.4432V106.598H47.6166V94.3291L55.4605 106.598H60.1367V88.1947V88.1947ZM79.3945 106.598L73.3607 97.2454V106.598H68.8857V88.1947H73.3607V97.0443L79.0928 88.1947H84.0707L78.0369 97.0443L84.6238 106.598H79.3945V106.598ZM100.462 97.3962C100.462 101.067 102.675 103.329 105.541 103.329C108.407 103.329 110.619 101.067 110.619 97.3962C110.619 93.7257 108.407 91.463 105.541 91.463C102.675 91.463 100.462 93.7257 100.462 97.3962ZM95.736 97.3962C95.7863 92.0161 99.5574 87.7925 105.541 87.7925C111.524 87.7925 115.295 92.0161 115.346 97.3962C115.295 102.776 111.524 107 105.541 107C99.5574 107 95.7863 102.776 95.736 97.3962V97.3962ZM121.48 106.598H125.955V99.3572H131.788V95.8375H125.955V91.7144H132.995L133.799 88.1947H121.48V106.598V106.598ZM154.666 88.1947H150.141L143.252 106.598H147.828L149.085 102.776H155.722L156.979 106.598H161.605L154.666 88.1947ZM152.403 92.6195L154.565 99.4075H150.141L152.403 92.6195ZM188.153 88.1947H182.924L178.147 98.1505L173.371 88.1947H168.141V106.598H172.164V94.2788L178.097 106.598L184.03 94.2788V106.598H188.204L188.153 88.1947V88.1947ZM196.852 106.598H209.422V103.078H201.327V98.955H207.713V95.5358H201.327V91.7144H208.719L209.523 88.1947H196.852V106.598ZM226.468 106.598H231.345L226.77 98.8041C229.284 98.1002 230.49 96.3403 230.49 93.776C230.49 90.4574 228.479 88.245 223.954 88.245H216.864V106.648H221.239V99.4075H222.445L226.468 106.598ZM223.099 91.6139C224.959 91.6139 225.915 92.4184 225.915 93.9771C225.915 95.5358 224.959 96.3403 223.099 96.3403H221.188V91.6139H223.099V91.6139ZM238.033 106.598H242.508V88.245H238.033V106.598ZM264.531 101.67C262.821 102.877 261.313 103.279 259.754 103.279C256.335 103.279 253.922 100.916 253.922 97.3962C253.922 93.8765 256.285 91.5133 259.603 91.5133C261.112 91.5133 262.62 91.9156 264.28 93.1223V88.9489C262.771 88.0942 261.011 87.7422 259.05 87.7422C252.966 87.7422 249.145 91.9658 249.095 97.346C249.145 102.776 252.866 106.95 259.05 106.95C261.112 106.95 262.872 106.598 264.481 105.743V101.67H264.531V101.67ZM280.923 88.1947H276.397L269.509 106.598H274.084L275.341 102.776H281.979L283.236 106.598H287.862L280.923 88.1947V88.1947ZM278.66 92.6195L280.822 99.4075H276.397L278.66 92.6195Z" fill="#012169"/>
<path d="M143.762 72.6102C164.911 54.4825 194.62 36.8584 210.935 30.5137C208.417 28.9024 204.49 26.5861 200.058 24.0684C179.01 31.0173 154.437 46.4258 132.482 63.8485C136.209 66.6684 140.136 69.5889 143.762 72.6102V72.6102Z" fill="#E31837"/>
<path d="M134.107 23.3674C130.985 21.8567 127.561 20.4468 124.943 19.2383C116.987 23.1659 106.614 29.1078 93.5215 38.4737C96.3413 39.9844 99.3626 41.7971 102.585 43.6099C112.656 36.1574 122.828 29.1078 134.107 23.3674V23.3674Z" fill="#012169"/>
<path d="M152.94 14.7056C149.113 12.5907 135.819 7.65591 126.655 5.54102C123.936 6.54811 120.109 8.05875 117.49 9.16655C120.814 10.0729 133.201 13.3963 143.775 18.7339C146.494 17.4247 150.321 15.8134 152.94 14.7056V14.7056Z" fill="#E31837"/>
<path d="M107.918 13.3945C96.1348 18.8328 83.7475 26.2853 77 30.6158C79.417 31.7236 81.834 32.63 85.1574 34.2413C100.062 24.1704 111.745 18.0272 116.377 16.013C113.054 14.8045 109.932 13.9988 107.918 13.3945V13.3945Z" fill="#012169"/>
<path d="M161.8 11.5816C164.519 10.6752 167.641 9.8695 170.36 9.06383C162.505 5.74042 152.635 2.2156 143.773 0C142.363 0.402837 138.133 1.51064 135.213 2.41702C138.234 3.3234 148.204 5.63972 161.8 11.5816ZM112.15 49.4482C115.373 51.3617 118.797 53.9801 122.121 56.1957C144.176 39.0752 165.929 25.8823 189.797 18.4298C186.474 16.7177 183.553 15.2071 179.827 13.3943C165.526 17.0199 141.054 26.7886 112.15 49.4482Z" fill="#E31837"/>
</svg>
