<svg width="124" height="42" viewBox="0 0 124 42" fill="none" xmlns="http://www.w3.org/2000/svg">
<path d="M52.7692 21.5089C52.7692 27.3305 48.2149 31.6204 42.6258 31.6204C37.0367 31.6204 32.4824 27.3305 32.4824 21.5089C32.4824 15.6463 37.0367 11.3975 42.6258 11.3975C48.2149 11.3975 52.7692 15.6463 52.7692 21.5089ZM48.3289 21.5089C48.3289 17.871 45.6893 15.3819 42.6258 15.3819C39.5623 15.3819 36.9227 17.871 36.9227 21.5089C36.9227 25.1104 39.5623 27.636 42.6258 27.636C45.6893 27.636 48.3289 25.1058 48.3289 21.5089Z" fill="#EA4335"/>
<path d="M74.65 21.5089C74.65 27.3305 70.0958 31.6204 64.5067 31.6204C58.9175 31.6204 54.3633 27.3305 54.3633 21.5089C54.3633 15.6508 58.9175 11.3975 64.5067 11.3975C70.0958 11.3975 74.65 15.6463 74.65 21.5089ZM70.2097 21.5089C70.2097 17.871 67.5702 15.3819 64.5067 15.3819C61.4431 15.3819 58.8036 17.871 58.8036 21.5089C58.8036 25.1104 61.4431 27.636 64.5067 27.636C67.5702 27.636 70.2097 25.1058 70.2097 21.5089Z" fill="#FBBC05"/>
<path d="M95.6204 12.0083V30.1616C95.6204 37.6289 91.2166 40.6788 86.0104 40.6788C81.1097 40.6788 78.1602 37.401 77.0478 34.7204L80.9137 33.1111C81.6021 34.7569 83.2888 36.6989 86.0059 36.6989C89.3384 36.6989 91.4035 34.6429 91.4035 30.7725V29.3182H91.2485C90.2547 30.5445 88.34 31.6158 85.9238 31.6158C80.8681 31.6158 76.2363 27.212 76.2363 21.5454C76.2363 15.8378 80.8681 11.3975 85.9238 11.3975C88.3354 11.3975 90.2502 12.4688 91.2485 13.6586H91.4035V12.0129H95.6204V12.0083ZM91.7181 21.5454C91.7181 17.985 89.343 15.3819 86.3205 15.3819C83.2569 15.3819 80.6903 17.985 80.6903 21.5454C80.6903 25.0694 83.2569 27.636 86.3205 27.636C89.343 27.636 91.7181 25.0694 91.7181 21.5454Z" fill="#4285F4"/>
<path d="M102.573 1.36816V31.0005H98.2422V1.36816H102.573Z" fill="#34A853"/>
<path d="M119.45 24.8365L122.896 27.1342C121.784 28.7799 119.103 31.6155 114.471 31.6155C108.727 31.6155 104.438 27.1752 104.438 21.504C104.438 15.491 108.764 11.3926 113.975 11.3926C119.222 11.3926 121.788 15.5685 122.627 17.8251L123.088 18.9739L109.571 24.5721C110.606 26.6008 112.215 27.6357 114.471 27.6357C116.733 27.6357 118.301 26.5233 119.45 24.8365ZM108.841 21.1986L117.877 17.4467C117.38 16.1839 115.885 15.304 114.125 15.304C111.868 15.304 108.727 17.2963 108.841 21.1986V21.1986Z" fill="#EA4335"/>
<path d="M16.088 18.8777V14.5878H30.5441C30.6854 15.3355 30.7583 16.2199 30.7583 17.1772C30.7583 20.3958 29.8785 24.3756 27.0429 27.2112C24.2848 30.0833 20.7608 31.615 16.0926 31.615C7.43994 31.615 0.164062 24.5671 0.164062 15.9145C0.164062 7.26181 7.43994 0.213867 16.0926 0.213867C20.8794 0.213867 24.2894 2.0921 26.8514 4.54019L23.8244 7.56725C21.9871 5.84401 19.498 4.50372 16.088 4.50372C9.7695 4.50372 4.82774 9.59593 4.82774 15.9145C4.82774 22.233 9.7695 27.3252 16.088 27.3252C20.1864 27.3252 22.5205 25.6795 24.0158 24.1842C25.2285 22.9715 26.0263 21.2392 26.3408 18.8731L16.088 18.8777V18.8777Z" fill="#4285F4"/>
</svg>
