<svg width="122" height="42" viewBox="0 0 122 42" fill="none" xmlns="http://www.w3.org/2000/svg">
<path d="M5.4452 0.946289L0 6.3566V20.2708L4.73111 25.0019H16.0379V29.8331H10.2252V26.6813H0.0116301V34.2897L4.68459 38.9999H20.4178L25 34.42V20.2057L20.2503 15.6165H9.87393V10.4364H15.6169V14.0069H25V6.28914L19.7781 0.946289H5.4452Z" fill="#8C1515"/>
<path d="M0.625 6.6379V20.0241L4.98628 24.3854C4.98628 24.3854 15.5301 24.3854 16.6629 24.3854C16.6629 25.3414 16.6629 29.5236 16.6629 30.4772C15.6743 30.4772 10.5803 30.4772 9.58946 30.4772C9.58946 29.6701 9.58946 27.3255 9.58946 27.3255H0.63663V34.036L5.01186 38.4601H20.0798L24.4387 34.0988V20.5428L19.9798 16.2629C19.9798 16.2629 10.371 16.2629 9.24056 16.2629C9.24056 15.2953 9.24056 10.7898 9.24056 9.82221H16.2442V13.3926H24.4387V6.64022L19.5122 1.59277H5.69339L0.625 6.6379Z" fill="white"/>
<path d="M5.94938 2.26758L1.25781 6.94985V19.8104L5.24925 23.8018H17.2934V31.1544H8.96157V28.0049H1.26712V33.8153L5.26786 37.8765H19.8217L23.8062 33.8828L23.8085 20.8431L19.7124 16.9378H8.61034V9.23632H16.8747V12.8067H23.8062L23.8085 6.94985L19.2565 2.26758H5.94938Z" fill="#8C1515"/>
<path d="M14.9642 22.043C14.9642 22.0452 14.9597 22.0542 14.9395 22.0767C14.9484 22.0677 14.9574 22.0564 14.9642 22.043Z" fill="#8C1515"/>
<path d="M12.8767 1.60742C12.6139 1.62138 12.4767 1.71907 12.4208 1.80979C12.358 1.9098 12.3278 1.99121 12.3301 2.09356C12.3301 2.16799 12.3464 2.23545 12.3627 2.29825C12.2627 2.49131 12.1254 2.79136 12.1115 2.79369C12.1115 2.79369 12.0022 2.79369 12.0068 2.79369C11.5928 2.80299 11.5253 2.98442 11.4439 3.13794C11.3951 3.23331 11.3765 3.331 11.3765 3.42637C11.3788 3.6799 11.523 4.03578 11.5602 4.08928C11.5602 4.08928 11.6323 4.1893 11.6602 4.23117C11.0066 4.67543 11.0345 5.1011 11.0369 5.39185C11.0369 5.46861 11.0578 5.54071 11.0973 5.61514C11.1392 5.69423 11.1997 5.74773 11.2671 5.7896C11.2439 5.81286 11.2206 5.83612 11.1974 5.8617C10.6926 6.24782 10.1251 6.60603 10.1111 7.07355C10.0995 7.11542 10.1832 7.38757 10.2367 7.45037C10.2367 7.4527 10.2414 7.4527 10.2414 7.4527C9.89479 7.62482 9.52495 7.94116 9.5296 8.3296C9.5296 8.34356 9.5296 8.35752 9.53193 8.37147C9.57147 8.85528 10.1623 9.04602 10.3414 9.09486L10.4949 9.1344L10.6298 9.05299C11.1415 8.74596 11.4579 8.67385 11.6346 8.6599C11.6346 8.66688 11.637 8.67385 11.637 8.68083C11.6463 9.56704 10.3949 9.95316 10.3414 9.96944L10.4042 9.95549C8.75737 10.1904 8.12004 11.4139 7.99676 11.6884C7.73392 11.9745 7.65018 12.221 7.65251 12.4118C7.65716 12.6769 7.80835 12.8351 7.81998 12.8467L7.86185 12.8886L7.91535 12.9165C8.48522 13.2003 9.6273 12.5536 10.2553 12.1419L10.2879 12.121L10.3158 12.0931C10.3995 12.0094 10.5205 11.914 10.6321 11.9186C10.7531 11.9256 10.8531 12.0512 10.8531 12.0512L10.9182 12.135L11.0229 12.1768C11.1555 12.2257 11.2369 12.2675 11.2927 12.3024C11.0369 12.3792 10.4507 12.6118 9.01556 13.3026L8.89925 13.3584L8.8411 13.4724C8.67596 13.8027 8.0177 14.1772 7.64088 14.3377C7.04077 14.5982 6.68722 14.9401 6.59185 15.3565C6.57324 15.4402 6.56394 15.5193 6.56626 15.5937C6.57091 15.9613 6.77793 16.2194 6.80817 16.2543L6.89656 16.359L7.03147 16.3823C7.39665 16.4427 9.20164 16.0427 10.246 15.7984L10.2716 15.7938L10.2949 15.7845C10.7368 15.6124 10.8764 15.6752 10.8926 15.6821C10.8973 15.724 10.9043 15.7938 10.9043 15.7938C10.9043 15.7938 10.9345 15.8217 10.9671 15.8473C10.9299 16.0334 10.6065 16.4869 10.246 16.8498L10.1786 16.9149L10.1507 17.0056C10.0553 17.322 9.66219 17.5197 9.5203 17.5685L9.55054 17.5592C7.5176 18.0663 7.49667 18.8571 7.53621 19.0874L7.59669 19.4224L9.44587 19.2688L9.53891 19.1898C9.65056 19.0944 9.68312 19.127 9.71103 19.1549L9.78314 19.2293L9.89711 19.2688C9.89711 19.2688 10.0274 19.3014 10.1553 19.334C10.1553 19.3456 10.16 19.3503 10.16 19.3619C10.1623 19.5201 10.1251 19.7689 10.0599 20.0202H9.09697C9.09697 20.0202 9.05975 20.2388 9.05045 20.2969C8.99462 20.3342 8.88995 20.3714 8.76667 20.3737C8.32706 20.19 7.88046 20.6645 7.82696 20.718L7.78975 20.7552C7.78975 20.7552 7.74323 20.8226 7.73857 20.8319C7.69438 20.8971 7.48504 21.011 7.29198 21.0971L7.35478 21.0762C6.97564 21.1715 6.86399 21.3762 6.83841 21.5297C6.83375 21.56 6.83143 21.5879 6.83143 21.6181C6.83375 21.7996 6.94075 21.9484 7.06403 22.0508C6.76397 22.1275 6.31505 22.2415 6.3197 22.6485C6.3197 22.6579 6.3197 22.6695 6.3197 22.6788C6.32901 22.823 6.40577 22.9533 6.53137 23.03C6.67326 23.1184 7.04775 23.351 10.0181 22.1322C10.0181 22.1322 10.032 22.1275 10.0483 22.1205C9.97155 22.1996 9.88316 22.2764 9.78314 22.3438L9.74127 22.3718L9.70638 22.4113C9.44354 22.7183 8.96206 22.8439 8.9574 22.8463L8.98997 22.8393C7.78742 23.0323 7.38502 23.5673 7.25011 23.8697C7.13148 24.1395 7.13614 24.4163 7.26407 24.6094C7.39432 24.8094 7.41991 24.8257 8.78295 24.5791C8.71783 24.7513 8.6527 25.0234 8.53407 25.2304C8.44801 25.3072 7.48271 26.1748 7.4455 26.2097C6.16386 26.9377 5.39628 29.2963 5.31254 29.5661L5.30091 29.6057L5.29626 29.6452C5.29393 29.6801 5.29161 29.7127 5.29393 29.7429C5.29626 30.0709 5.46838 30.229 5.57538 30.2965C5.96848 30.5407 6.543 30.25 6.77328 30.1127L6.85934 30.0616L7.03379 29.7499C7.22685 29.4219 7.78742 29.3149 7.99676 29.2986C8.60152 29.3707 9.20861 28.7985 9.32957 28.6752L9.36213 28.645L9.38539 28.6055C9.44122 28.5124 9.51797 28.5008 9.53658 28.4985C10.3972 28.6124 11.0252 27.6774 11.2462 27.2889C11.4462 27.2354 11.6137 27.282 11.7719 27.6076C11.8789 27.8263 11.9463 28.4985 11.9603 28.9055V29.1079C11.9603 29.1056 11.9231 30.357 11.9231 30.357L11.8859 31.5711C11.8859 31.5711 11.9161 31.5293 11.9207 31.5246C11.9207 31.5269 11.9184 31.5642 11.9184 31.5642C11.9184 31.5711 11.9068 32.2108 11.9068 32.2108C11.8975 32.7458 11.8603 33.1854 11.837 33.3715C11.7416 34.0856 11.6114 34.1693 11.5625 34.1995C11.5183 34.2251 11.3695 34.2856 11.2555 34.3158C11.0764 34.3624 11.0113 34.3996 10.7973 34.4903C10.1181 34.7787 9.92735 35.2695 9.74592 35.7138C9.65288 35.9394 9.54123 36.1231 9.43424 36.1906C9.08301 36.4139 9.08301 36.4139 8.9481 36.4348L8.65968 36.4907C8.01072 36.6349 7.68275 37.2745 7.64786 37.3443L7.38735 37.8816L18.4545 37.877L18.3987 37.3908C18.3429 36.8721 18.1126 36.5418 17.0031 36.1743C16.5309 36.0185 16.4332 35.9045 16.2727 35.7138C16.068 35.4742 15.8168 35.2695 15.0074 34.8578C14.698 34.6996 14.4189 34.0274 14.2444 33.1714C14.1444 32.6853 14.2049 32.4829 14.2049 32.4783V32.4597L14.1467 30.7896C14.1467 30.8012 14.1398 29.4475 14.1398 29.4475C14.1398 29.4521 14.156 28.124 14.1607 27.5844C14.5491 27.8309 15.005 27.8635 15.0655 27.8681C15.0678 27.8681 16.4821 27.9263 16.4821 27.9263L16.5076 27.9239C16.7984 27.8984 17.652 28.4008 18.2661 28.8869L18.2894 28.9055L18.3126 28.9195C18.7523 29.1707 19.3035 29.4219 19.6617 29.1358C19.8967 28.9474 19.906 28.638 19.8408 28.4287L19.8548 28.4868C19.4966 25.9259 18.0196 25.5072 17.78 25.456C17.6962 25.4328 17.6427 25.4095 17.6102 25.3932C17.6241 25.3746 17.6381 25.356 17.6544 25.3421L17.6311 25.363C18.0754 25.0188 18.2568 24.6722 18.1754 24.3349C18.0521 23.8325 17.4078 23.6906 17.2799 23.6673L17.2194 23.6557L17.1589 23.665C16.5332 23.7534 15.8354 23.3417 15.7563 23.2929C15.0841 22.7788 14.9027 22.3787 14.9004 22.1531C14.9004 22.0903 14.912 22.0391 14.9329 22.0066L14.9236 22.0205L14.9702 21.9554C14.9702 21.9554 14.9748 21.9321 14.9818 21.9065C15.2004 21.9089 15.7726 22.1578 16.2564 22.4718L16.2146 22.4392C16.7635 22.9184 17.3683 22.6997 17.6125 22.516L17.7079 22.4439C17.7079 22.4439 17.7381 22.3508 17.7451 22.3252C17.7823 22.2438 18.0056 22.0229 18.2149 21.86C18.5173 21.6298 18.6011 21.4041 18.5987 21.2227C18.5987 21.1646 18.5871 21.1111 18.5731 21.0622C18.415 20.5295 17.4962 20.3411 16.7147 20.276C16.5937 20.2039 16.168 19.948 16.168 19.948C15.4889 19.548 15.0958 19.2991 14.8608 18.8199C15.3377 18.8641 15.7796 18.906 16.0378 18.9339C16.3169 19.0549 16.8705 18.9641 17.0217 18.8944C17.2403 18.792 17.3148 18.6059 17.3124 18.4571C17.3124 18.4478 17.3124 18.4385 17.3124 18.4292C17.2845 18.0663 16.831 17.4918 16.0401 17.1382C15.3353 16.8219 14.8004 16.145 14.7515 15.9799C14.7096 15.8357 14.6934 15.6798 14.6934 15.5309C14.691 15.3751 14.705 15.2309 14.7213 15.1169C15.0399 15.1285 15.3865 15.5216 15.3912 15.5263L15.5144 15.6752L15.7075 15.6612C15.8331 15.6519 16.0611 15.7426 16.1774 15.8077L16.3216 15.8868L16.4797 15.8357C16.6588 15.7775 17.2613 15.8659 17.5846 15.9124C18.1521 15.9961 18.3615 16.1008 18.5429 15.7775L18.5894 15.7031L18.6104 15.603C18.715 14.033 17.5567 13.4561 17.5102 13.4329L17.3869 13.3724C17.3869 13.3724 17.3683 13.3771 17.359 13.3794C17.3008 13.3143 17.2148 13.191 17.1589 13.0793C16.8752 12.5676 16.3355 12.4769 15.9378 12.5071C15.8005 12.3955 15.6261 12.335 15.4423 12.3117C15.3935 12.2582 15.3772 12.242 15.3353 12.1931C15.326 12.135 15.3144 12.0838 15.2981 12.0349C15.3632 12.0442 15.4261 12.0536 15.4912 12.0629C17.2636 12.3117 17.4892 12.3164 17.6846 12.121C17.7963 12.007 17.8567 11.8628 17.8544 11.7116C17.8544 11.6744 17.8498 11.6349 17.8405 11.5953C17.7032 10.965 16.282 10.309 15.112 9.8671C14.263 9.54378 14.0397 9.20186 13.9956 9.11812C13.9909 9.08556 13.9607 9.03904 13.9607 9.01345C13.9607 8.93902 13.9886 8.90413 14.0118 8.88319C14.1025 8.80644 14.3282 8.8297 14.5515 8.9018L14.5933 8.91576L14.6375 8.92041C15.3702 8.97624 15.7075 8.59477 15.7912 8.35984L15.8354 8.23656L15.7912 8.11096C15.6307 7.64576 15.2656 7.32476 14.9329 7.16194C14.9702 7.1131 15.1772 7.02936 15.1609 6.67348C15.1539 6.51764 14.9655 6.11524 14.3956 5.72447C14.8143 5.58491 14.4049 4.84989 13.9048 4.45679C13.9048 4.45679 13.7699 4.35444 13.7513 4.34049C14.0467 4.25443 14.2165 3.91018 14.2537 3.68455C14.2584 3.64966 14.2607 3.6171 14.2607 3.58221C14.2584 3.36124 14.1258 3.17283 13.9258 3.12864C13.5652 3.0449 13.442 2.95651 13.4094 2.92395C13.5024 2.91232 13.4117 2.4099 13.3489 2.31686C13.3536 2.26801 13.3954 2.15171 13.3931 2.10286C13.3908 1.94469 13.3699 1.84235 13.2605 1.72605C13.1559 1.6144 12.9884 1.60742 12.8767 1.60742Z" fill="white"/>
<path d="M13.7906 27.3483L13.765 29.4441L13.772 30.7978L13.8301 32.447C13.8301 32.447 13.765 32.6958 13.8743 33.2401C14.0209 33.9565 14.3 34.9125 14.835 35.1847C16.3143 35.936 15.7351 36.143 16.8819 36.5245C18.0588 36.9152 17.9914 37.1943 18.0286 37.506H7.98021C7.98021 37.506 8.24771 36.9594 8.7385 36.8501C9.22929 36.7431 9.07809 36.8524 9.63169 36.5012C10.0829 36.2151 10.0038 35.2265 10.9412 34.8288C11.3227 34.666 11.5832 34.6194 11.76 34.5101C11.8856 34.431 12.088 34.3031 12.2043 33.4146C12.2438 33.1192 12.2764 32.0678 12.2903 31.5747L12.3485 30.3L12.295 30.3721L12.3345 29.1114V28.8975C12.3345 28.8975 12.2973 27.8368 12.1089 27.4483C11.9205 27.0599 11.5832 26.7296 10.9947 26.9738C10.9947 26.9738 10.3388 28.302 9.52934 28.1275C9.52934 28.1275 9.24092 28.1275 9.06646 28.416C9.06646 28.416 8.45007 29.0417 7.98719 28.9254C7.98719 28.9254 7.05679 28.9812 6.71254 29.5627C6.67997 29.6185 6.58228 29.793 6.58228 29.793C6.58228 29.793 5.61233 30.3722 5.67048 29.6767C5.67048 29.6767 6.459 27.1413 7.67551 26.504L8.83386 25.4619C8.83386 25.4619 9.48049 24.1524 9.07577 24.0942L7.57781 24.4036C7.57781 24.4036 7.63364 23.5151 9.08042 23.2825C9.08042 23.2825 9.64332 23.0592 9.99222 22.6521C9.99222 22.6521 10.8598 22.0753 10.5714 21.6101C10.5714 21.6101 10.283 21.4356 9.87824 21.7822C9.87824 21.7822 6.72184 23.0778 6.69393 22.6498C6.67765 22.4055 7.61968 22.4172 7.73598 22.1288C7.73598 22.1288 7.73598 21.4938 7.33126 21.7822C7.33126 21.7822 6.98468 21.5496 7.44756 21.4356C7.44756 21.4356 7.96859 21.203 8.08489 20.9727C8.08489 20.9727 8.43146 20.6261 8.72221 20.7401C8.72221 20.7401 9.35954 20.7401 9.41537 20.3935H10.3411C10.3411 20.3935 10.6854 19.3678 10.4528 19.0189L9.98989 18.9026C9.98989 18.9026 9.70147 18.556 9.29674 18.9026L7.90811 19.0189C7.90811 19.0189 7.79181 18.3815 9.64332 17.9187C9.64332 17.9187 10.3388 17.6861 10.5109 17.1092C10.5109 17.1092 11.6669 15.9509 11.2622 15.6043C11.2622 15.6043 11.2041 15.0251 10.162 15.4298C10.162 15.4298 7.44058 16.0672 7.09633 16.009C7.09633 16.009 6.459 15.2554 7.78948 14.6785C7.78948 14.6785 8.88969 14.2157 9.17811 13.6365C9.17811 13.6365 11.2692 12.634 11.4995 12.634C11.4995 12.634 12.2508 12.2292 11.1529 11.8245C11.1529 11.8245 10.69 11.1872 10.0527 11.8245C10.0527 11.8245 8.54776 12.8084 8.08489 12.5758C8.08489 12.5758 7.85461 12.3455 8.31749 11.8827C8.31749 11.8827 8.83851 10.5499 10.4574 10.3196C10.4574 10.3196 12.3229 9.75436 11.9647 8.32153C11.9647 8.32153 11.5367 8.068 10.4388 8.72626C10.4388 8.72626 9.21068 8.3192 10.604 7.70048L11.0203 7.13526C11.0203 7.13526 10.5947 7.43532 10.5319 7.12131C10.4993 6.96314 10.4877 6.73984 10.9273 6.5212C11.4925 6.24207 11.3599 5.98854 12.0298 5.9583C12.0298 5.9583 12.1205 5.82804 12.0624 5.6815C11.4181 5.60475 11.111 4.79297 12.2368 4.29985L12.3508 3.82302L11.8647 3.86721C11.8647 3.86721 11.4576 3.13219 12.2391 3.14615C12.2391 3.14615 12.602 2.78562 12.7276 2.25994C12.7276 2.25994 12.5276 1.95058 12.8741 1.95058C12.8741 1.95058 13.1091 1.84823 12.9928 2.36693C12.9928 2.36693 13.1323 2.66466 13.1323 2.95309C13.1323 2.95309 12.9881 3.28571 13.8371 3.47877C13.9278 3.4997 13.9302 4.10447 13.351 4.04632C13.351 4.04632 13.1626 4.42546 13.7092 4.85577C13.7092 4.85577 14.614 5.69546 13.7929 5.74198C13.7929 5.74198 15.0536 6.54678 14.6908 6.90964C14.5326 7.06781 14.0441 6.84684 13.9976 6.93755C13.9325 7.07014 13.9581 7.13526 14.1302 7.20737C14.2744 7.26785 15.1816 7.50045 15.4304 8.21919C15.4304 8.21919 15.3002 8.58204 14.6559 8.5332C14.6559 8.5332 13.4417 8.0866 13.6138 9.18681C13.6138 9.18681 13.7534 9.74273 14.9676 10.2079C14.9676 10.2079 17.9263 11.3244 17.4052 11.8478C17.2657 11.9873 14.7954 11.5384 14.3302 11.5384L14.2721 11.885C14.2721 11.885 14.9676 11.7105 14.9676 12.3479L15.2513 12.6549C15.2513 12.6549 15.7142 12.6549 15.7724 12.8875C15.7724 12.8875 16.5237 12.713 16.8144 13.2364C16.8144 13.2364 17.1028 13.8156 17.3354 13.7574C17.3354 13.7574 18.3031 14.2319 18.2147 15.5694C18.1542 15.6671 16.8028 15.3182 16.3539 15.467C16.3539 15.467 15.9724 15.2484 15.6677 15.274C15.6677 15.274 15.0187 14.4878 14.3837 14.7995C14.3837 14.7995 14.2163 15.5019 14.3837 16.0741C14.4744 16.3858 15.1141 17.1278 15.877 17.4697C16.6051 17.7954 16.9168 18.2815 16.9284 18.4467C16.9447 18.67 16.3027 18.5979 16.205 18.5769C16.1073 18.5537 14.3256 18.3885 14.3256 18.3885C14.3256 18.3885 14.3326 18.5537 14.4279 18.8026C14.7652 19.6864 15.4584 19.926 16.5865 20.6308C16.5865 20.6308 18.959 20.8029 17.9751 21.5566C17.9751 21.5566 17.4355 21.9776 17.3773 22.2078C17.3773 22.2078 16.9144 22.5567 16.4516 22.1497C16.4516 22.1497 14.7326 21.0355 14.6187 21.7892C14.6187 21.7892 14.0907 22.4939 15.5374 23.5918C15.5374 23.5918 16.3957 24.1431 17.2052 24.0268C17.2052 24.0268 18.4356 24.2501 17.3936 25.0595C17.3936 25.0595 16.8167 25.5806 17.6843 25.8108C17.6843 25.8108 19.1311 26.0434 19.4777 28.5323C19.4777 28.5323 19.708 29.2859 18.4915 28.5904C18.4915 28.5904 17.1028 27.4902 16.4655 27.5484L15.0769 27.4902C15.0769 27.4902 14.5163 27.4623 14.1977 27.146C14.2046 27.1436 13.8278 26.8459 13.7906 27.3483Z" fill="#006F53"/>
<path d="M55.7365 20.7646C52.5317 20.7646 52.2771 18.3235 52.2771 17.6047C52.2771 16.7511 52.4718 15.1637 54.5534 14.3999C56.6351 13.6361 57.0843 13.5463 58.5669 13.082V12.7226C58.5669 12.0038 58.5669 11.869 58.4022 11.4048C58.1476 10.5811 57.3389 10.027 56.2158 10.027C55.1525 10.027 54.239 10.626 53.8196 11.5096L53.2206 11.1502C53.58 9.8323 54.9428 8.51444 57.279 8.51444C58.8964 8.51444 60.0196 8.97869 60.6785 9.99704C61.1727 10.8207 61.2326 11.9289 61.2326 13.0521C61.2326 14.0704 61.1727 15.1936 61.1727 16.1071C61.1727 16.7062 61.1128 17.2902 61.1128 17.6197C61.1128 18.4433 61.2775 19.1023 61.9365 19.1023C62.236 19.1023 62.2959 18.9974 62.5355 18.8477L62.8949 19.3119C62.2959 20.1356 61.5771 20.7945 60.394 20.7945C59.4805 20.7945 58.8215 20.3303 58.552 19.5815C58.1776 20.1057 57.2042 20.7646 55.7365 20.7646ZM58.5669 14.5497C56.9945 15.0139 56.4254 15.2685 55.9761 15.5081C55.2573 15.8675 54.9578 16.5265 54.9578 17.3801C54.9578 18.039 55.2124 19.1023 56.7399 19.1023C57.2341 19.1023 57.9529 18.9974 58.6119 18.5482V14.5347H58.5669V14.5497ZM32.1048 20.1356C32.1048 18.9525 32.1048 17.9491 32 16.7361H32.7188C32.7188 17.4999 32.9135 18.054 33.2729 18.4134C33.7671 18.9675 34.9502 19.3269 36.0135 19.3269C38.2449 19.3269 39.3082 18.4733 39.3082 16.6313C39.3082 15.0588 38.3497 14.3999 37.0318 13.4714L36.8372 13.3067L35.4145 12.3482C33.4377 11.0304 32.4193 10.012 32.4193 7.93039C32.4193 6.91204 32.8237 3.55747 37.7507 3.55747C39.0236 3.55747 40.641 3.72221 41.6144 3.85699C41.6144 4.02172 41.5545 4.77051 41.5545 5.42944C41.5545 6.1932 41.5545 6.38789 41.6144 7.30141H41.0154C41.0154 6.47774 40.7608 5.98354 40.4164 5.62413C39.9521 5.15988 38.9038 4.90529 37.7806 4.90529C35.1449 4.90529 34.8454 6.22316 34.8454 7.2415C34.8454 8.61927 35.5642 9.11347 37.1217 10.1318L38.9038 11.3149C40.4164 12.3333 41.8391 13.2917 41.8391 15.8376C41.8391 20.1057 37.8256 20.5549 36.1483 20.5549C34.6058 20.7646 33.3179 20.54 32.1048 20.1356ZM64.0031 9.2782C64.6022 9.3381 65.5157 9.2782 66.3992 9.11347C67.163 8.94874 67.4176 8.85888 67.9717 8.61927L68.2263 8.784V9.69752C68.8253 9.23327 70.0084 8.57434 71.6857 8.57434C73.8272 8.57434 75.205 9.59269 75.5943 11.3748C75.6992 11.8391 75.7591 12.8874 75.7591 13.5163V16.9757C75.7591 18.9076 75.8639 19.4767 76.2233 19.8211C76.418 19.9858 76.8224 20.1805 77.4064 20.1805V20.7346C76.6426 20.6747 75.2649 20.6298 74.4712 20.6298C73.4079 20.6298 72.1949 20.6897 71.5359 20.7346V20.1805C72.135 20.1206 72.4944 19.9259 72.719 19.7762C73.0784 19.4168 73.1233 18.7578 73.1833 17.2752C73.1833 16.811 73.2432 15.8975 73.2432 15.2385C73.2432 14.3849 73.2432 13.4564 73.1383 12.5429C72.9736 11.0304 72.1799 10.3115 70.6374 10.3115C69.5741 10.3115 68.9152 10.5661 68.406 10.8057V17.0057C68.406 18.9375 68.5108 19.5066 68.8702 19.8511C69.0649 20.0158 69.5292 20.2105 69.9934 20.2105V20.7646C69.035 20.7047 67.8519 20.6598 67.1031 20.6598C65.5307 20.6598 65.0215 20.7197 64.108 20.7646V20.1805C64.6022 20.1805 65.1263 19.9858 65.3809 19.6863C65.7403 19.282 65.7852 18.2636 65.7852 16.2868V12.7675C65.7852 11.2849 65.7253 10.6859 65.5307 10.3714C65.3659 10.1168 64.9766 9.90718 64.1529 9.90718V9.24825H64.0481V9.2782H64.0031ZM78.6943 20.1057C79.1885 20.1057 79.7127 19.9409 79.9673 19.6115C80.3267 19.2071 80.3716 18.1888 80.3716 16.212V10.2966H78.8591V9.63762C79.518 9.38303 80.0721 9.08352 80.3716 8.81396C80.3716 7.75068 80.4315 6.41784 80.5663 5.65408C81.0305 3.21303 82.603 2 85.2836 2C86.4667 2 87.56 2.40434 88.2788 2.95845L88.3387 3.21303L87.1556 4.83041H86.8561C86.4518 3.87196 85.8377 3.31786 84.7745 3.31786C84.4151 3.31786 83.9208 3.42269 83.5914 3.72221C83.0972 4.21641 82.9924 4.99514 82.9924 6.52267V8.79898H85.6281V10.2816H82.9924V16.8409C82.9924 18.4134 83.0523 19.1772 83.2469 19.4767C83.5465 19.9709 84.6247 20.0308 85.1189 20.0308V20.6298C84.2653 20.5699 82.8875 20.525 81.9141 20.525C80.4315 20.525 79.4731 20.5849 78.7093 20.6298L78.6943 20.1057ZM92.3073 20.8544C88.7131 20.8544 86.5716 18.6231 86.5716 14.8641C86.5716 11.9289 88.144 8.51444 92.5618 8.51444C96.156 8.51444 98.2975 10.7458 98.2975 14.5047C98.2975 17.44 96.7101 20.8544 92.3073 20.8544ZM92.457 9.87723C91.7382 9.87723 91.1841 10.0719 90.7797 10.4313C89.8213 11.255 89.357 12.6627 89.357 14.7443C89.357 15.568 89.5218 19.5216 92.4121 19.5216C93.1309 19.5216 93.685 19.3269 94.0894 18.9675C95.0478 18.1438 95.5121 16.7361 95.5121 14.6545C95.4971 13.8458 95.3623 9.87723 92.457 9.87723ZM99.5106 9.2183C100.334 9.2782 101.188 9.1584 102.101 9.02361C102.82 8.91878 103.284 8.76903 103.524 8.61927L103.719 8.7241V9.74245C104.273 9.18835 105.201 8.61927 106.459 8.61927C107.373 8.61927 107.972 8.87386 108.541 9.33811V9.69752L107.523 11.5395H107.028C106.729 10.9854 106.115 10.4763 105.052 10.4763C104.557 10.4763 104.138 10.5811 103.779 10.8357V16.8859C103.779 18.4583 103.839 19.1622 104.033 19.4767C104.333 19.9709 105.351 20.0308 105.905 19.9709V20.6298C105.082 20.5699 103.674 20.525 102.7 20.525C101.577 20.525 100.424 20.525 99.4956 20.6298V20.0308C100.155 19.9709 100.514 19.8361 100.769 19.5366C101.128 19.1322 101.173 18.1588 101.173 16.1371V12.8424C101.173 11.3598 101.173 10.7608 100.918 10.4463C100.724 10.1917 100.319 10.042 99.5405 10.042V9.2782L99.5106 9.2183ZM116.134 2.71883C116.852 2.71883 117.751 2.5541 118.934 2.35942C119.593 2.25459 119.997 2.10483 120.207 2.0599L120.402 2.16473C120.297 3.12318 120.297 5.32461 120.297 6.88209V16.5265C120.297 17.9491 120.297 18.8627 120.492 19.1622C120.686 19.4168 121.091 19.6264 121.869 19.6264V20.2255C121.106 20.2255 120.252 20.3303 119.338 20.48C118.739 20.5849 118.275 20.6747 118.021 20.7796L117.721 20.6747V19.6564C117.122 20.1206 115.999 20.7796 114.426 20.7796C111.177 20.7796 109.095 18.5482 109.095 15.0439C109.095 13.8608 109.29 12.8125 109.694 11.8391C110.712 9.69752 112.749 8.48449 115.325 8.48449C116.283 8.48449 117.107 8.58932 117.601 8.67917V6.17823C117.601 4.69563 117.601 3.94684 117.347 3.58743C117.182 3.33284 116.942 3.22801 116.074 3.18308V2.70386H116.134V2.71883ZM115.714 19.1173C116.538 19.1173 117.092 19.0124 117.646 18.653V10.7458C117.452 10.5511 116.733 9.92216 115.31 9.92216C113.034 9.92216 111.91 11.4946 111.91 14.7593C111.866 16.1221 112.27 19.1173 115.714 19.1173ZM51.109 19.4767C50.7496 19.9409 49.8361 20.8544 47.9042 20.8544C46.0622 20.8544 45.0588 20.1955 44.6096 18.7129C44.4149 18.1588 44.4149 16.9907 44.4149 16.3168C44.4149 14.4448 44.4149 12.9173 44.4748 11.1352V10.3115H42.8874V9.84728C43.4864 9.59269 43.9506 9.35308 44.37 9.02361C45.2835 8.30478 45.8825 7.45116 46.5564 6.17823H47.0506V8.81396H51.0641V10.2966H47.0506V16.4965C47.0506 18.3685 47.41 19.3868 49.1322 19.3868C49.9559 19.3868 50.51 19.1322 50.8095 18.9226L51.109 19.4767Z" fill="#8C1515"/>
<path d="M107.401 30.5587C107.206 30.5587 106.937 30.6186 106.802 30.7534C106.637 30.8582 106.637 31.008 106.637 31.1128C106.637 31.3075 106.697 31.4722 106.832 31.8766L107.955 34.8118C108.12 35.2761 108.255 35.6355 108.315 35.8751L109.692 31.8616C109.857 31.3974 109.887 31.3075 109.887 31.0978C109.887 30.993 109.827 30.9032 109.722 30.7983C109.558 30.6935 109.363 30.6036 109.123 30.6036V30.1394C109.288 30.1394 109.617 30.1394 109.782 30.1993C109.947 30.1993 110.246 30.2592 110.501 30.2592C110.995 30.2592 111.714 30.1993 112.014 30.1993V30.6635C111.819 30.7234 111.355 30.6036 110.95 31.7867L108.06 39.4992C107.656 40.6224 107.101 42.0002 105.125 42.0002C104.301 42.0002 103.747 41.8055 103.283 41.4011V41.2065L104.002 40.3528H104.196C104.391 40.8171 104.795 41.0118 105.379 41.0118C106.293 41.0118 106.697 40.1881 107.311 38.5707L107.476 38.1065L105.05 31.7717C105.05 31.7118 104.99 31.607 104.945 31.5172C104.885 31.3524 104.75 31.0529 104.75 31.0529C104.586 30.7534 104.346 30.6486 104.031 30.6486V30.1843C104.496 30.2442 105.304 30.2442 105.709 30.2442C105.963 30.2442 106.368 30.2442 106.772 30.1843C106.967 30.1843 107.326 30.1244 107.491 30.1244V30.5288H107.431V30.5587H107.401ZM80.5046 30.4539C80.9988 30.5138 81.5679 30.394 82.122 30.2891C82.5862 30.1843 82.8408 30.1244 83.0355 30.0346L83.2002 30.0945V30.7534C83.5596 30.394 84.1137 30.0346 84.9224 30.0346C85.5215 30.0346 85.8809 30.1993 86.2403 30.4988V30.7534L85.6413 31.9365H85.3418C85.1471 31.5771 84.7877 31.2775 84.0688 31.2775C83.7693 31.2775 83.5147 31.3824 83.2452 31.5321V35.3509C83.2452 36.3693 83.3051 36.8335 83.4099 37.0282C83.6046 37.3277 84.2336 37.3876 84.593 37.3876V37.792C84.0988 37.7321 83.1703 37.7321 82.5563 37.7321C81.8374 37.7321 81.0737 37.7321 80.5196 37.8369V37.4326C80.9239 37.4326 81.1785 37.2678 81.3432 37.1331C81.5978 36.8785 81.5978 36.2794 81.5978 34.9466V32.8051C81.5978 31.8915 81.5978 31.4872 81.4331 31.2925C81.3283 31.1278 81.0287 31.0379 80.5795 31.0379V30.4838H80.5046V30.4539ZM46.6894 37.8219C44.5479 37.8219 43.2899 37.163 42.8257 35.7403C42.5711 35.0215 42.5711 34.1229 42.5711 33.4041V29.3457C42.5711 28.1326 42.5112 27.923 42.2716 27.7283C42.1667 27.6235 41.9122 27.5336 41.5527 27.4737V27.0694C42.0469 27.1293 42.9305 27.1742 43.4247 27.1742C44.2783 27.1742 44.8025 27.1742 45.3566 27.0694V27.5336C44.9972 27.5336 44.7575 27.6384 44.5329 27.8331C44.2783 28.0877 44.2783 28.552 44.2783 29.8698V33.464C44.2783 35.6055 44.473 36.9833 46.8691 36.9833C49.3102 36.9833 49.4599 35.5606 49.4599 33.3891V29.4355C49.4599 28.2225 49.4 28.0128 49.1604 27.8182C48.9957 27.7133 48.7561 27.6235 48.4416 27.5636V27.1592C48.9058 27.1592 49.5048 27.2191 50.1188 27.2191C50.673 27.2191 51.242 27.2191 51.901 27.1143V27.5785C51.5415 27.5785 51.3019 27.6834 51.0773 27.8781C50.8227 28.1326 50.8227 28.5969 50.8227 29.9148V32.9698C50.8227 33.9282 50.8227 35.0065 50.5232 35.8601C50.044 37.163 48.816 37.8219 46.6894 37.8219ZM61.1709 37.3577C61.5753 37.2978 61.8299 37.2529 62.0246 37.0582C62.2791 36.8036 62.2791 36.2046 62.2791 34.8717V32.7302C62.2791 31.8167 62.2791 31.3524 62.1144 31.1577C62.0096 30.993 61.8149 30.9032 61.2608 30.8582V30.394C61.5603 30.4539 62.384 30.3341 62.983 30.2292C63.2825 30.1693 63.582 30.0645 63.8067 29.9747L63.9714 30.1394C63.9115 30.6336 63.9115 31.7118 63.9115 33.1345V35.321C63.9115 36.3393 63.9714 36.8036 64.0762 36.9983C64.241 37.193 64.5405 37.3577 64.9897 37.3577V37.7171C64.5854 37.6572 63.8067 37.6572 63.1477 37.6572C62.384 37.6572 61.5753 37.7171 61.1709 37.762V37.3577ZM63.0429 28.6718C62.4439 28.6718 62.0845 28.3124 62.0845 27.7583C62.0845 27.2041 62.4888 26.7998 63.1028 26.7998C63.7018 26.7998 64.0612 27.1592 64.0612 27.7133C64.0463 28.3123 63.6419 28.6718 63.0429 28.6718ZM93.2789 37.3577C93.6832 37.2978 93.9378 37.2529 94.1325 37.0582C94.3871 36.8036 94.3871 36.2046 94.3871 34.8717V32.7302C94.3871 31.8167 94.3871 31.3524 94.2224 31.1577C94.1175 30.993 93.9228 30.9032 93.3687 30.8582V30.394C93.6683 30.4539 94.4919 30.3341 95.091 30.2292C95.3905 30.1693 95.7499 30.0645 95.9146 29.9747L96.0793 30.1394C96.0194 30.6336 96.0194 31.7118 96.0194 33.1345V35.321C96.0194 36.3393 96.0793 36.8036 96.1842 36.9983C96.3489 37.193 96.6484 37.3577 97.0977 37.3577V37.7171C96.6334 37.6572 95.8847 37.6572 95.2257 37.6572C94.462 37.6572 93.6533 37.7171 93.2489 37.762V37.3577H93.2789ZM95.1509 28.6718C94.5518 28.6718 94.1924 28.3124 94.1924 27.7583C94.1924 27.2041 94.5968 26.7998 95.2108 26.7998C95.8098 26.7998 96.1692 27.1592 96.1692 27.7133C96.1692 28.3123 95.7499 28.6718 95.1509 28.6718ZM87.1239 37.4625C87.1239 36.6988 87.064 35.8901 87.019 35.4857H87.5132C87.5132 35.8901 87.6181 36.2495 87.8127 36.4442C88.1123 36.8036 88.4717 36.9384 89.1306 36.9384H89.2354C90.0591 36.9384 90.5084 36.579 90.5084 35.8751C90.5084 35.321 90.149 35.0514 89.5499 34.692L88.4867 34.0331C87.9326 33.6737 87.2736 33.1795 87.2736 32.1012C87.2736 31.2476 87.633 30.5887 88.3369 30.2292C88.8011 29.9747 89.52 29.9747 89.8494 29.9747C90.4485 29.9747 91.332 30.0795 91.8262 30.1693C91.7663 30.364 91.7663 30.8882 91.7663 31.0829C91.7663 31.2476 91.7663 31.9365 91.8262 32.1012H91.332C91.332 31.8017 91.2272 31.5022 91.0325 31.2476C90.8378 30.993 90.3736 30.8433 89.8195 30.8433C89.0557 30.8433 88.6364 31.1428 88.6364 31.8017C88.6364 32.2959 89.0408 32.5655 89.4002 32.82H89.4601L90.4784 33.4191C91.1374 33.8234 91.991 34.3326 91.991 35.5007C91.991 37.4775 90.149 37.777 89.1007 37.777C88.5016 37.762 87.8427 37.7171 87.1239 37.4625ZM103.073 36.9683C102.818 37.2229 102.249 37.8219 101.036 37.8219C99.8532 37.8219 99.1943 37.4176 98.9547 36.4442C98.8499 36.0848 98.8499 35.321 98.8499 34.9316C98.8499 33.7186 98.8499 32.7452 98.8499 31.637V31.1428H97.8315V30.8433C98.2359 30.6785 98.4904 30.5437 98.79 30.349C99.3441 29.8848 99.7484 29.3307 100.213 28.507H100.572V30.1843H103.103V31.0978H100.572V35.0514C100.572 36.2345 100.767 36.9234 101.89 36.9234C102.384 36.9234 102.744 36.7587 102.953 36.6239L103.073 36.9683ZM68.7187 30.1544C68.554 30.1544 68.2245 30.1544 67.9999 30.2143C67.5955 30.2143 67.1762 30.2742 66.8767 30.2742C66.3226 30.2742 65.4989 30.2143 65.2593 30.2143V30.6785C65.3641 30.6785 65.7535 30.6186 66.0231 31.1428C66.1279 31.3375 66.1878 31.5022 66.2178 31.607C66.2777 31.7118 66.3226 31.8017 66.3226 31.8616L68.7636 37.9567L69.5274 37.792L72.223 31.8017C72.223 31.7418 72.2829 31.6969 72.3279 31.607C72.3878 31.5471 72.3877 31.4423 72.5824 31.1428C72.7472 30.8433 73.0766 30.6785 73.3462 30.6785V30.2143C73.0467 30.2143 72.3878 30.2742 71.8636 30.2742C71.609 30.2742 71.3694 30.2742 71.0998 30.2143C70.9052 30.2143 70.6056 30.1544 70.381 30.1544V30.5587C70.6356 30.5587 70.8752 30.6635 70.98 30.7534C71.0399 30.8133 71.1448 30.9481 71.1448 31.0529C71.1448 31.2176 71.0849 31.3524 70.9501 31.8167L69.4675 35.4108C69.4076 35.2162 69.3028 34.9166 69.168 34.4973L68.1496 31.8017C67.9849 31.3974 67.9549 31.2476 67.9549 31.0379C67.9549 30.9331 67.9549 30.8432 68.0598 30.7833C68.2245 30.6186 68.4641 30.5288 68.7187 30.5288V30.1244V30.1544ZM52.1256 30.4539C52.5299 30.5138 53.084 30.4539 53.6381 30.349C54.1024 30.2442 54.2971 30.1843 54.6565 30.0495L54.8212 30.1544V30.7534C55.1806 30.4539 56.0043 30.0346 57.0077 30.0346C58.3855 30.0346 59.2391 30.6935 59.5086 31.8167C59.5685 32.1162 59.6135 32.7751 59.6135 33.1944V35.3809C59.6135 36.5939 59.6734 36.9533 59.913 37.2229C60.0178 37.3277 60.3173 37.4176 60.6318 37.4176V37.777C60.1376 37.777 59.254 37.7171 58.7598 37.7171C58.041 37.7171 57.2772 37.777 56.8879 37.8219V37.4625C57.2473 37.4026 57.4869 37.2978 57.6516 37.2079C57.8463 37.0133 57.9062 36.549 57.9512 35.6355C57.9512 35.336 57.9512 34.7819 57.9512 34.3176C57.9512 33.7635 57.9512 33.1345 57.8913 32.5954C57.7864 31.637 57.2922 31.1727 56.3188 31.1727C55.6599 31.1727 55.1956 31.3374 54.8961 31.4722V35.4558C54.8961 36.6688 54.956 37.0282 55.1956 37.2978C55.3004 37.4026 55.6 37.4925 55.9145 37.4925V37.8519C55.2555 37.6872 54.4918 37.6872 53.9826 37.6872C52.9642 37.6872 52.6647 37.6872 52.1106 37.792V37.4326C52.4101 37.4326 52.7696 37.3277 52.9343 37.1331C53.129 36.8785 53.1889 36.2195 53.1889 34.9466V32.8051C53.1889 31.8915 53.1889 31.4872 53.0241 31.2925C52.9193 31.1278 52.6647 30.993 52.1705 31.0379V30.4689H52.1256V30.4539ZM76.8056 37.8219C74.5293 37.8219 73.2863 36.5041 73.2863 34.108C73.2863 33.7036 73.3911 29.9896 76.8355 29.9896C77.8539 29.9896 78.7674 30.394 79.1718 31.1128C79.636 31.8316 79.666 32.5355 79.666 33.1495V33.6138H74.9486C74.9486 34.0181 75.0085 34.3326 75.0534 34.5722C75.308 36.0548 76.1167 36.7587 77.5544 36.7587C78.378 36.7587 78.8722 36.5939 79.3365 36.2944L79.5312 36.6538C79.052 37.3277 78.0336 37.8219 76.8056 37.8219ZM74.9785 32.7452H77.9138C77.9138 31.8316 77.7491 30.8133 76.4312 30.8133C75.2781 30.8732 75.0385 31.9664 74.9785 32.7452Z" fill="#8C1515"/>
</svg>
