<svg width="110" height="40" viewBox="0 0 110 40" fill="none" xmlns="http://www.w3.org/2000/svg">
<path d="M24.9123 24.8594C25.1996 25.622 25.5975 26.2741 26.1059 26.8156C26.6143 27.3571 27.2166 27.7716 27.9128 28.0589C28.6091 28.3463 29.3661 28.4899 30.184 28.4899C30.9798 28.4899 31.7257 28.3407 32.422 28.0423C33.1183 27.7438 33.7261 27.3239 34.2455 26.7824C34.7649 26.2408 35.1683 25.5944 35.4557 24.8428C35.743 24.0913 35.8867 23.2515 35.8867 22.323V8H39.368V31.2086H35.9199V29.0535C35.1462 29.8713 34.2344 30.5012 33.1845 30.9434C32.1346 31.3854 31.0018 31.6064 29.7861 31.6064C28.5483 31.6064 27.3934 31.3909 26.3214 30.9599C25.2494 30.5289 24.321 29.9156 23.5364 29.1198C22.7518 28.324 22.1328 27.3682 21.6797 26.2519C21.2265 25.1357 21 23.8924 21 22.5219V8H24.4813V22.323C24.4813 23.2515 24.6249 24.0968 24.9123 24.8594Z" fill="#010202"/>
<path d="M45.3682 8V16.4545C46.1418 15.6809 47.037 15.0676 48.0538 14.6145C49.0705 14.1613 50.1757 13.9348 51.3692 13.9348C52.6071 13.9348 53.7674 14.1668 54.8505 14.631C55.9336 15.0951 56.8729 15.7251 57.6687 16.5209C58.4644 17.3166 59.0944 18.256 59.5586 19.339C60.0227 20.4221 60.2548 21.5715 60.2548 22.7872C60.2548 24.0028 60.0227 25.1467 59.5586 26.2187C59.0944 27.2907 58.4644 28.2246 57.6687 29.0203C56.8729 29.816 55.9336 30.446 54.8505 30.9102C53.7674 31.3743 52.607 31.6064 51.3692 31.6064C50.1756 31.6064 49.065 31.3798 48.0372 30.9267C47.0094 30.4736 46.1086 29.8602 45.335 29.0866V31.2085H42.0195V8H45.3682ZM45.7494 25.0749C46.0478 25.7822 46.4623 26.4011 46.9928 26.9316C47.5233 27.4621 48.1422 27.8821 48.8495 28.1916C49.5568 28.501 50.3193 28.6557 51.1372 28.6557C51.933 28.6557 52.6844 28.501 53.3917 28.1916C54.099 27.8821 54.7123 27.4622 55.2319 26.9316C55.7513 26.4012 56.1657 25.7822 56.4751 25.0749C56.7846 24.3676 56.9393 23.6051 56.9393 22.7872C56.9393 21.9694 56.7846 21.2013 56.4751 20.4829C56.1657 19.7645 55.7513 19.1401 55.2319 18.6096C54.7124 18.0792 54.0991 17.6647 53.3917 17.3664C52.6843 17.068 51.9329 16.9187 51.1372 16.9187C50.3415 16.9187 49.59 17.0679 48.8827 17.3664C48.1754 17.6648 47.5565 18.0792 47.026 18.6096C46.4955 19.1401 46.0755 19.7645 45.7661 20.4829C45.4566 21.2013 45.3019 21.9694 45.3019 22.7872C45.3019 23.6051 45.4511 24.3676 45.7494 25.0749Z" fill="#010202"/>
<path d="M62.1434 19.372C62.5855 18.311 63.1934 17.3772 63.967 16.5704C64.7405 15.7636 65.6579 15.1282 66.7189 14.664C67.7798 14.1998 68.9292 13.9678 70.167 13.9678C71.3827 13.9678 72.51 14.1888 73.5489 14.6308C74.5877 15.0729 75.4828 15.6863 76.2344 16.471C76.9859 17.2556 77.5717 18.184 77.9916 19.256C78.4116 20.328 78.6215 21.494 78.6215 22.7539V23.848H64.8622C64.9728 24.5333 65.1938 25.1687 65.5253 25.7544C65.8569 26.3401 66.2713 26.8485 66.7686 27.2795C67.2659 27.7106 67.8296 28.0477 68.4595 28.2907C69.0895 28.5339 69.7581 28.6555 70.4654 28.6555C72.4769 28.6555 74.1015 27.8266 75.3393 26.1688L77.7596 27.9591C76.9197 29.0864 75.8808 29.9706 74.6431 30.6116C73.4052 31.2526 72.0127 31.5731 70.4655 31.5731C69.2056 31.5731 68.0286 31.352 66.9345 30.9099C65.8403 30.4679 64.8899 29.849 64.0832 29.0532C63.2764 28.2574 62.6409 27.3236 62.1768 26.2516C61.7126 25.1797 61.4805 24.0136 61.4805 22.7538C61.4803 21.5602 61.7014 20.4329 62.1434 19.372ZM66.8018 18.0623C65.8624 18.847 65.238 19.8914 64.9285 21.1955H75.2398C74.9524 19.8914 74.339 18.847 73.3996 18.0623C72.4602 17.2777 71.3606 16.8853 70.1007 16.8853C68.8408 16.8853 67.7412 17.2777 66.8018 18.0623Z" fill="#010202"/>
<path d="M84.8882 18.444C84.1809 19.2176 83.8272 20.2675 83.8272 21.5938V31.2089H80.4785V14.2997H83.794V16.3885C84.214 15.7033 84.7611 15.1617 85.4352 14.7639C86.1093 14.366 86.9106 14.167 87.839 14.167H88.9994V17.2836H87.6069C86.5017 17.2837 85.5955 17.6704 84.8882 18.444Z" fill="#010202"/>
</svg>
