<svg width="121" height="37" viewBox="0 0 121 37" fill="none" xmlns="http://www.w3.org/2000/svg">
<path d="M74.1865 25.0124C74.8593 25.0124 76.0162 24.7943 76.9263 23.3362C76.4058 22.1797 76.0354 19.8429 75.9822 18.9925C75.7138 14.6405 77.3908 10.5466 79.2268 10.4343C80.5715 10.3531 81.6479 11.6264 81.7719 13.6884C82.1018 19.1112 80.2968 21.3754 79.3935 23.3268C79.5462 24.0842 80.8289 25.373 82.041 25.373C82.4885 25.373 83.0301 25.1488 83.1657 24.9674C83.075 24.6552 82.9843 24.2505 82.9843 23.6654C82.9843 20.5232 85.0048 17.8745 86.7555 17.8745C88.147 17.8745 88.9543 19.7148 88.9543 20.9291C88.9543 22.3634 87.7423 23.5331 85.9478 24.6556C86.263 24.9674 86.8439 25.1946 87.3394 25.1946C89.8996 25.1946 91.2398 22.0962 92.2322 19.2673C92.4118 18.7268 92.7266 17.9641 93.3536 17.9641C94.4323 17.9641 94.882 25.057 96.6731 25.057C97.4377 25.057 98.0658 23.4847 98.0658 22.2757C98.0658 21.3777 97.7521 21.2878 97.7521 19.985C97.7521 18.5503 98.5156 17.3394 99.5492 17.3394C100.177 17.3394 100.404 17.9641 100.404 18.7264C100.404 21.5996 98.3372 26.9422 95.2879 26.9422C92.9949 26.9422 93.1741 22.9927 92.3668 22.9927C91.4654 22.9927 90.2083 26.9879 85.7683 26.9879C85.0464 26.9879 84.286 26.6289 83.6593 25.9093C82.5822 26.6292 81.6819 26.9422 80.6494 26.9422C78.9906 26.9422 78.2721 25.2365 77.599 25.2365C76.7894 25.2365 75.8945 26.9879 73.1986 26.9879C71.0443 26.9879 70.6845 24.117 69.9241 24.117C69.2491 24.117 68.2173 26.9879 67.0959 26.9879C65.2077 26.9879 64.8071 22.0055 63.1442 22.0055C61.8421 22.0055 57.7293 27.0661 56.6133 26.9505C56.1635 26.9036 55.9753 26.5673 56.0225 26.1186C56.0853 25.498 56.6197 23.8358 56.8374 23.049C57.2002 21.6842 57.5336 20.1879 57.7195 19.7102C57.9043 19.2298 58.4032 18.8859 58.8027 18.9233C59.0045 18.9422 59.0654 19.3183 59.1274 19.6282C59.3537 20.7378 59.6708 21.8698 60.0276 21.8698C60.6577 21.8698 62.7405 17.8745 63.9514 17.8745C65.4352 17.8745 65.6133 24.1598 67.6311 24.1598C68.3061 24.1598 68.8016 23.3536 69.2487 22.3634C69.2948 20.6993 69.7427 18.3262 71.0893 18.3262C72.0334 18.3262 72.4831 20.4336 71.807 22.2757C71.807 24.4738 73.2424 25.0124 74.1865 25.0124ZM110.095 19.6271C109.539 21.934 107.852 25.3284 105.336 25.3284C104.754 25.3284 103.72 25.1027 103.72 24.5188C103.72 23.8895 107.673 23.803 107.673 20.7934C107.673 19.6728 106.641 18.0998 105.114 18.0998C103.094 18.0998 101.124 20.3009 101.124 23.3532C101.124 26.0895 102.824 26.9879 104.529 26.9879C107.494 26.9879 109.288 24.5615 110.23 22.5429C110.68 23.8895 110.947 26.9879 112.072 26.9879C112.52 26.9879 112.835 26.7627 113.376 25.5525C114.718 22.5429 116.021 19.0877 117.818 19.0877C118.49 19.0877 118.087 20.3009 119.703 20.3009C120.465 20.3009 121.001 19.6728 121.001 18.9509C121.001 17.918 120.06 17.113 118.624 17.113C114.406 17.113 113.51 23.442 112.836 23.442C111.712 23.442 112.072 18.37 111.262 18.37C110.544 18.37 110.191 19.2264 110.095 19.6271ZM80.3183 14.8997C80.2401 13.6461 79.9366 13.0799 79.2631 13.1249C78.3689 13.1793 77.9554 15.9924 78.1383 18.9479C78.2547 20.8765 78.542 21.1736 78.8092 21.1551C79.3035 21.1267 80.4903 17.6795 80.3183 14.8997ZM73.0183 12.264C72.9552 11.5451 72.3909 11.0538 71.6275 11.0538C70.7752 11.0538 69.9732 11.948 70.0586 13.0713C70.1131 13.8105 70.55 14.4205 71.4064 14.4205C72.3913 14.4205 73.109 13.298 73.0183 12.264ZM86.9807 21.4204C86.9807 20.6589 86.5748 20.0307 86.0846 20.0307C85.6764 20.0307 84.7368 20.4771 84.7368 21.9148C84.7368 23.0407 85.1375 23.5747 85.32 23.803C86.6198 23.3986 86.9807 22.3184 86.9807 21.4204ZM104.529 19.8984C105.473 19.8984 105.743 21.0156 105.519 21.6906C105.292 22.3634 104.486 23.1291 103.229 23.3536C102.959 22.6786 102.824 19.8984 104.529 19.8984ZM52.8437 16.7112C52.7144 16.303 52.3418 15.3858 52.239 14.7089C52.0148 13.2092 52.7987 12.2213 53.5187 11.9949C54.3271 11.7696 54.6423 12.1744 54.9541 13.1185C55.3585 14.5539 55.4039 16.438 55.2678 19.1316C55.0909 22.8128 53.2496 27.2574 48.6719 27.1652C44.7205 27.0786 42.9718 24.5188 42.7904 20.6139C42.7049 18.7737 42.8357 16.9346 43.5992 14.3306C44.0028 12.9378 44.3637 12.4424 45.6185 12.1744C46.6057 11.9949 46.5169 13.0255 46.2928 14.2417C45.8003 16.9346 45.5728 18.2343 45.7542 21.2878C45.9307 24.5188 47.4153 25.777 49.031 25.777C51.4543 25.8227 52.5307 23.803 52.9816 20.883C53.3384 18.5503 53.0701 17.4278 52.8437 16.7112Z" fill="#0F0E9A"/>
<path d="M32.1983 10.1574C32.3766 11.4559 34.3439 13.2062 34.8776 13.1652C35.2336 13.1346 35.3703 11.4695 35.3703 10.1574C35.3703 9.40593 35.4115 8.81735 35.0147 8.68002C34.3851 9.95199 32.7324 10.2121 32.1983 10.1574ZM32.3074 9.58296C33.728 9.58296 35.0281 8.44832 35.0281 7.45014C35.0281 6.98478 34.8088 6.6023 34.2484 6.53418C34.3439 6.65741 34.3851 6.75308 34.3851 6.97133C34.3851 7.72349 33.2385 8.55787 31.9935 8.55787C31.5416 8.55787 31.4049 8.8718 31.4049 9.03625C31.4049 9.41938 31.7746 9.58296 32.3074 9.58296ZM32.0069 8.03807C31.8158 8.03807 31.5416 8.03807 31.3908 7.73759C31.2676 7.49114 31.3086 7.09456 31.0762 6.91666C31.3086 6.98478 31.555 6.98478 31.747 6.98478C32.3632 6.98478 32.9517 6.56108 33.403 6.56108C33.7009 6.56108 33.7965 6.75308 33.7965 6.94378C33.7965 7.54646 32.5821 8.03807 32.0069 8.03807ZM1.4237 18.7571C1.88797 18.7571 1.79208 15.9129 2.54445 15.9129C2.72235 15.9129 2.77659 16.0908 2.77659 16.3099C2.77659 16.952 2.46223 17.8958 2.46223 18.4149C2.46223 18.675 2.53035 18.7571 2.65358 18.7571C2.98204 18.7571 3.55608 15.6256 4.1169 15.6256C4.29479 15.6256 4.37637 15.8033 4.37637 15.9816C4.37637 16.6377 3.54242 18.5243 3.54242 19.0575C3.54242 19.1391 3.56997 19.2077 3.63809 19.2077C3.98022 19.2077 4.66382 17.7315 4.88207 16.9933C5.0053 16.6101 5.16953 16.4047 5.31988 16.4047C5.45655 16.4047 5.57978 16.5555 5.57978 16.87C5.57978 17.6083 4.89552 19.3446 4.29479 20.5074C3.83009 21.4092 3.10527 22.7079 3.10527 23.4325C3.10527 23.8015 3.17274 24.184 3.70686 24.6496C2.83126 24.5949 2.47568 24.5129 2.14831 23.8291C0.68564 26.7412 4.8415 26.4542 3.41919 29.038C3.15929 28.5738 1.10869 28.0949 1.10869 25.3877C1.10869 23.0498 3.15929 21.6828 3.15929 20.7115C3.15929 20.5211 3.09203 20.3566 2.91348 20.2058C2.46223 19.8227 2.44813 19.5094 2.09385 19.5094C1.8333 19.5094 1.51872 20.1104 1.84653 20.6436C1.95652 20.8215 2.0522 20.9304 2.0522 21.0949C2.0522 21.4774 1.44995 22.5025 1.02712 22.5025C0.603417 22.5025 0.275391 21.4509 0.275391 19.7546C0.275391 18.2507 0.616868 16.7334 1.04057 16.7334C1.16379 16.7334 1.2048 16.8156 1.2048 16.9247C1.2048 17.1026 1.15034 17.458 1.15034 18.0589C1.15034 18.7019 1.30047 18.7571 1.4237 18.7571Z" fill="#0F0E9A"/>
<path d="M4.90759 22.762C5.4825 22.762 5.96022 22.3377 5.96022 21.3953V20.0001C5.96022 19.4672 6.00144 18.8659 6.35746 18.4415C6.31645 18.6194 6.31645 18.8112 6.31645 18.9884C6.31645 20.1643 6.97251 20.9713 6.97251 22.106C6.97251 22.529 6.84928 22.762 6.5219 22.762C6.20668 22.762 6.23423 22.4744 6.16567 22.4744C6.111 22.4744 6.029 22.6523 6.029 22.844C6.029 23.1311 6.23423 23.5823 6.80806 23.5823C7.30097 23.5823 7.69711 23.1311 7.69711 22.6251C7.69711 21.3955 6.74015 20.0276 6.74015 18.7157C6.74015 18.1406 6.89028 17.7579 7.01351 17.457C7.01351 20.1784 9.32401 22.1604 9.32401 23.2946C9.32401 23.5548 9.13309 23.76 8.84607 23.76C8.53085 23.76 8.38072 23.5135 8.38072 23.3218C8.38072 23.2261 8.36662 23.1992 8.32605 23.1992C8.24447 23.1992 7.99802 23.4725 7.99802 23.8288C7.99802 24.2794 8.36662 24.8267 9.05087 24.8267C9.8295 24.8267 10.2536 24.1696 10.2536 23.5823C10.2536 22.147 7.45066 19.9732 7.45066 17.6488C7.45066 17.2522 7.51878 16.6096 7.80624 16.1173C6.00123 17.2791 5.4415 18.8249 5.4415 20.1786C5.4415 21.3545 5.4005 21.9411 4.79912 21.9411C4.48389 21.9411 4.40232 21.6547 4.29276 21.6547C4.21032 21.6547 4.16953 21.9005 4.16953 21.9687C4.16953 22.4744 4.53921 22.762 4.90759 22.762V22.762ZM28.6018 9.10405C29.2039 9.10405 29.6558 8.83069 29.6558 8.66624C29.6558 8.61222 29.5735 8.57079 29.3952 8.57079C29.2173 8.57079 28.8617 8.55712 28.1911 8.44799C27.6162 8.35167 27.1782 8.13342 27.014 8.13342C26.9595 8.13342 26.9318 8.16054 26.9318 8.20154C26.9318 8.55712 27.5891 9.10405 28.6018 9.10405V9.10405ZM25.6216 7.36781C25.7952 7.25131 26.5653 7.43571 27.562 6.94346C27.6703 6.88199 27.7926 6.84914 27.9171 6.848C28.3966 6.848 28.2727 7.39471 28.7116 7.39471C29.0531 7.39471 29.4915 7.10725 29.7514 7.10725C30.1593 7.10725 30.7472 8.39289 30.7472 8.99427C30.7472 9.69198 29.6968 10.1155 28.451 10.1155C26.6345 10.1155 25.539 8.53022 25.539 7.50449C25.539 7.42226 25.5806 7.39471 25.6216 7.36781V7.36781ZM5.19505 27.9161C4.74423 28.0259 4.01919 28.7357 4.01919 29.8584C4.01919 31.1979 5.45495 33.2628 7.82012 33.2628C9.81561 33.2628 10.3081 31.8821 10.3081 30.9514C10.3081 28.8867 9.0372 27.4373 7.38297 27.4373C6.48047 27.4373 5.67385 28.0946 5.67385 29.0644C5.67385 29.9675 6.35724 31.3207 7.98435 31.3207C8.75018 31.3207 9.20078 30.7737 9.20078 30.1452C9.20078 29.5297 8.64041 28.6826 7.82012 28.6826C7.57367 28.6826 7.39642 28.8455 7.39642 29.1056C7.39642 29.4334 7.84768 29.7621 8.40805 29.7621C8.54473 29.7621 8.65386 29.7352 8.70918 29.7076C8.73608 29.7486 8.75018 29.8172 8.75018 29.8719C8.75018 30.1864 8.44862 30.3782 7.98435 30.3782C7.2873 30.3782 6.61671 29.8584 6.61671 29.0368C6.61671 28.5457 7.04084 28.1901 7.65589 28.1901C8.87297 28.1901 9.59758 29.2698 9.59758 30.3507C9.59758 31.3204 9.06476 31.8823 7.9709 31.8823C5.78298 31.8823 4.71668 29.9129 5.19505 27.9161V27.9161ZM19.7417 33.1942C19.7421 33.3391 19.7998 33.478 19.9023 33.5805C20.0048 33.683 20.1437 33.7407 20.2886 33.7411C20.4335 33.7407 20.5723 33.683 20.6747 33.5806C20.7772 33.4781 20.8349 33.3393 20.8353 33.1944C20.835 33.0495 20.7773 32.9105 20.6748 32.8079C20.5724 32.7053 20.4336 32.6474 20.2886 32.6469C20.1436 32.6474 20.0048 32.7053 19.9023 32.8079C19.7999 32.9105 19.7422 33.0495 19.7419 33.1944L19.7417 33.1942ZM20.8017 35.9269C21.4571 35.9269 21.4234 35.8722 21.6287 35.8722C21.8335 35.8722 21.8478 35.9955 21.8478 36.0777C21.8478 36.3786 21.177 36.7485 19.9881 36.7485C19.2904 36.7485 18.8669 36.3786 18.7437 35.9686C18.0607 36.4057 17.0216 36.8023 15.9958 36.8023C13.1935 36.8023 12.4823 35.5848 11.6074 35.1893C10.9366 34.8884 9.91151 35.477 8.47639 33.8767C8.66774 33.918 8.92764 33.9318 9.13309 33.9318C10.3899 33.9318 11.0598 33.317 11.0598 32.3319C11.0598 32.2086 11.0464 32.0737 11.0323 31.9511C11.4154 32.1012 12.291 32.7566 12.4958 33.9177C12.5233 34.0551 13.0837 34.1776 13.4387 34.1776C13.9316 34.1776 14.5605 33.9724 14.6557 33.1667C16.2967 33.03 17.4045 32.0596 17.637 30.828C18.2243 31.0197 18.8938 31.5532 19.0581 31.8272C19.2904 31.745 19.564 31.704 19.8783 31.704C20.3155 31.704 20.8084 31.7862 21.3959 31.9643C21.4234 31.7862 21.451 31.5673 21.7243 31.5673C22.1344 31.5673 22.0248 32.0186 22.1615 32.2772C22.2303 32.4139 22.5728 32.4961 22.5728 32.7696C22.5728 33.03 22.3528 33.1257 22.2168 33.1257C22.1615 33.1257 22.0936 33.1122 22.0519 33.0988C21.779 33.1942 21.7656 35.1624 20.6166 35.1624C19.7692 35.1624 18.9901 34.4653 18.648 33.591C18.5517 33.3311 18.3475 33.1667 18.1555 33.1667C17.9375 33.1667 17.8143 33.2079 17.5548 33.4953C16.8168 34.3009 15.5856 34.9981 14.0685 34.9981C13.6029 34.9981 13.2345 34.9569 13.1382 34.9569C13.0837 34.9569 13.0837 34.9704 13.0837 34.984C13.0837 35.0802 13.5484 35.4498 14.5605 35.4498C16.9665 35.4498 17.5548 34.0956 17.9375 34.0956C17.992 34.0956 18.1558 34.0956 18.2512 34.3145C18.8116 35.6258 20.0361 35.9269 20.8017 35.9269V35.9269ZM29.0943 27.2186C28.8075 27.2186 27.219 29.338 26.1963 29.338C25.9499 29.338 25.7451 28.8726 25.7451 28.5188C25.7451 28.327 25.8672 28.1903 26.3061 28.0946C28.6567 27.5605 28.1367 25.7967 30.1452 25.7967C31.2525 25.7967 32.4841 26.5491 32.4841 28.2448C32.4841 30.0498 29.9155 32.2911 29.5321 32.2911C29.2171 32.2911 28.8756 31.8405 28.8756 31.5396C28.8756 31.4445 28.9168 31.3204 29.1902 31.2115C30.5008 30.6909 31.2525 29.4887 31.2525 28.8726C31.2525 28.7359 31.1844 28.601 31.0061 28.601C30.7744 28.601 29.7786 30.8694 28.6702 30.8694C27.9039 30.8694 27.124 30.173 27.124 29.8443C27.124 29.2976 29.3403 28.2858 29.3403 27.5195C29.3403 27.232 29.2041 27.2186 29.0945 27.2186H29.0943ZM30.5689 26.3712C30.3775 26.3712 30.1728 26.522 30.1728 26.8919C30.1728 27.3006 30.4873 27.5605 30.6652 27.6427C30.7607 27.6974 30.9117 27.7525 31.0605 27.7525C31.4577 27.7525 31.7723 27.6427 31.7723 27.3143C31.7723 26.8916 31.1568 26.3712 30.5689 26.3712V26.3712ZM5.03082 10.5392C5.03127 10.6842 5.08911 10.8233 5.1917 10.9259C5.2943 11.0284 5.43331 11.0863 5.57839 11.0867C5.72327 11.0861 5.86199 11.0281 5.96429 10.9255C6.06659 10.8229 6.12417 10.684 6.12445 10.5392C6.124 10.3944 6.06634 10.2557 5.96405 10.1533C5.86176 10.0509 5.72314 9.99308 5.57839 9.99245C5.43342 9.99279 5.29448 10.0505 5.19188 10.1529C5.08929 10.2553 5.03139 10.3942 5.03082 10.5392V10.5392ZM4.32031 9.30885C4.32077 9.45363 4.37846 9.59235 4.48079 9.69477C4.58313 9.79719 4.72181 9.85498 4.86659 9.85556C5.01152 9.85516 5.15041 9.79745 5.25296 9.69503C5.3555 9.5926 5.41338 9.45378 5.41395 9.30885C5.41343 9.16387 5.35559 9.025 5.25303 8.92253C5.15048 8.82006 5.01156 8.76232 4.86659 8.76192C4.72181 8.76249 4.58313 8.82029 4.48079 8.9227C4.37846 9.02512 4.32077 9.16385 4.32031 9.30863V9.30885ZM3.82784 13.0547C3.51283 13.1369 2.85743 13.52 2.85743 14.203C2.85743 14.6955 3.23926 15.0098 3.71871 15.0098C3.96473 15.0098 4.14241 14.9551 4.25154 14.8731C3.86906 14.5041 3.73238 14.0939 3.73238 13.6843C3.73238 13.3968 3.7736 13.2189 3.82784 13.0547ZM0.478805 13.2467C0.465138 13.3152 0.465137 13.3834 0.465137 13.4515C0.465137 14.0939 0.806614 14.4494 1.25787 14.4494C1.59891 14.4494 1.99614 14.244 2.35107 13.793C2.18836 13.8204 2.0236 13.8339 1.8586 13.8333C1.35354 13.8333 0.806614 13.6979 0.478805 13.2467V13.2467ZM0 14.4629C0 15.5021 0.314575 15.9945 0.874736 15.9945C1.31254 15.9945 1.90047 15.68 2.59687 15.0784C2.06405 15.2018 1.65401 15.2832 1.28499 15.2832C0.792513 15.2832 0.410683 15.092 0 14.4631V14.4629ZM3.54103 8.99427C3.62131 8.73765 3.66263 8.47043 3.66361 8.20154C3.66361 7.54549 3.3627 6.54688 2.43329 6.54688C1.90047 6.54688 1.51669 6.97058 1.51669 7.47693C1.51669 8.55734 2.59709 8.99427 3.54103 8.99427V8.99427ZM2.37819 12.4398C1.92737 12.4398 1.43511 11.8795 1.43511 11.3735C1.43511 11.1002 1.63991 10.7581 1.79069 10.7581C1.84536 10.7581 1.87292 10.7993 1.88615 10.8954C1.96859 11.5649 2.40552 11.948 2.81642 12.1387C2.85764 12.1663 2.88433 12.1799 2.88433 12.2075C2.88433 12.303 2.62443 12.4396 2.37797 12.4396L2.37819 12.4398ZM3.63671 10.7715C3.73108 10.9004 3.99228 11.0592 3.99228 11.1549C3.99228 11.346 3.88251 11.5924 3.66361 11.5924C3.1848 11.5924 2.80232 10.8678 2.80232 10.4572C2.80232 10.1977 2.9531 10.1708 3.15725 10.1708C3.25358 10.1708 3.29393 10.1842 3.3627 10.2255C3.48593 10.2934 3.48593 10.5669 3.63671 10.7715V10.7715ZM0.424134 12.4674C0.398317 12.5097 0.382914 12.5629 0.382914 12.6182C0.382914 12.7408 0.519592 12.8774 0.642384 12.8774C0.75216 12.8774 0.820282 12.8505 0.874736 12.8505C1.20276 12.8505 1.57179 13.0822 2.10527 13.0822C2.41919 13.0822 2.78866 12.9868 3.25358 12.7549C4.23744 12.2619 4.62122 11.0457 4.62122 10.8403C4.62122 10.5804 4.4123 10.614 4.23744 10.3749C4.06344 10.1372 4.13026 9.92563 4.01919 9.81455C3.9554 9.75077 3.75993 9.74643 3.51283 9.7191C3.41298 9.70932 3.31268 9.70476 3.21236 9.70543C2.7611 9.70543 2.22654 9.76053 1.62646 10.1432C0.440188 10.8997 0.614832 12.1528 0.424134 12.4674V12.4674ZM4.9627 11.9207C4.66179 12.2754 4.34721 12.8774 4.34721 13.4925C4.34721 14.2305 4.79912 14.8456 5.49617 14.8456C6.16567 14.8456 6.48003 14.2718 6.48003 13.6843C6.48003 12.7683 5.6463 12.1253 4.9627 11.9205V11.9207ZM2.03715 9.2954C2.03715 9.2954 1.63991 9.59565 1.14809 9.59565C0.560812 9.59565 0.0954574 9.1585 0.0954574 8.54367C0.0954574 8.11932 0.314575 7.68238 0.820065 7.46327C0.806614 7.54571 0.806614 7.61361 0.806614 7.69583C0.806614 8.4749 1.24377 9.06304 2.03715 9.2954ZM26.1414 13.8337C26.1414 14.1487 26.4018 14.4087 26.7126 14.4087C26.8649 14.4079 27.0107 14.347 27.1184 14.2394C27.226 14.1318 27.2869 13.986 27.2878 13.8337C27.2867 13.6817 27.2257 13.5363 27.1181 13.429C27.0105 13.3216 26.8649 13.261 26.7129 13.2603C26.402 13.2603 26.1414 13.5198 26.1414 13.8335V13.8337ZM26.1824 15.5563C26.1824 15.7265 26.25 15.8898 26.3704 16.0102C26.4908 16.1305 26.654 16.1982 26.8243 16.1982C26.9945 16.1982 27.1577 16.1305 27.2781 16.0102C27.3985 15.8898 27.4661 15.7265 27.4661 15.5563C27.463 15.3881 27.394 15.2279 27.274 15.11C27.154 14.9922 26.9925 14.9262 26.8243 14.9262C26.6561 14.9262 26.4946 14.9922 26.3745 15.11C26.2545 15.2279 26.1855 15.3881 26.1824 15.5563V15.5563ZM24.2125 16.7187C24.213 16.9689 24.3127 17.2087 24.4897 17.3856C24.6666 17.5625 24.9065 17.662 25.1567 17.6624C25.4068 17.6619 25.6466 17.5623 25.8235 17.3854C26.0005 17.2086 26.1002 16.9689 26.1008 16.7187C26.1001 16.4686 26.0004 16.229 25.8234 16.0522C25.6465 15.8754 25.4068 15.7758 25.1567 15.7752C24.9065 15.7756 24.6666 15.8752 24.4897 16.052C24.3127 16.2289 24.213 16.4687 24.2125 16.7189V16.7187ZM24.7185 14.7913C24.7189 14.9363 24.7767 15.0753 24.8793 15.1777C24.9818 15.2802 25.1208 15.3378 25.2658 15.3381C25.4107 15.3377 25.5496 15.28 25.6521 15.1776C25.7546 15.0751 25.8123 14.9363 25.8127 14.7913C25.8123 14.6465 25.7546 14.5076 25.6522 14.4051C25.5497 14.3027 25.4109 14.2449 25.266 14.2444C25.1211 14.2448 24.9821 14.3024 24.8795 14.4049C24.7769 14.5073 24.719 14.6462 24.7185 14.7911V14.7913ZM22.9282 15.885C22.9285 16.0295 22.986 16.1679 23.088 16.2703C23.19 16.3726 23.3283 16.4305 23.4727 16.4313C23.7743 16.4313 24.0207 16.1861 24.0207 15.885C24.0202 15.7399 23.9622 15.6009 23.8594 15.4985C23.7567 15.3961 23.6176 15.3384 23.4725 15.3383C23.328 15.3392 23.1898 15.3972 23.0879 15.4996C22.9859 15.602 22.9285 15.7405 22.9282 15.885V15.885ZM24.3353 12.6865C24.3353 13.1647 24.7319 13.5608 25.2107 13.5608C25.6902 13.5608 26.0867 13.1647 26.0867 12.6865C26.0867 12.2071 25.6902 11.8111 25.2107 11.8111C24.7319 11.8111 24.3353 12.2071 24.3353 12.6865V12.6865ZM25.3615 11.0043C25.3615 11.0725 25.3749 11.1401 25.4011 11.2031C25.4272 11.2662 25.4655 11.3234 25.5138 11.3716C25.5621 11.4198 25.6194 11.4581 25.6824 11.4841C25.7455 11.5102 25.8131 11.5235 25.8813 11.5235C25.9508 11.5255 26.02 11.5135 26.0848 11.4883C26.1496 11.4631 26.2087 11.4251 26.2585 11.3767C26.3084 11.3282 26.348 11.2703 26.3751 11.2062C26.4022 11.1422 26.4161 11.0734 26.4161 11.0039C26.4161 10.9343 26.4022 10.8655 26.3751 10.8015C26.348 10.7374 26.3084 10.6795 26.2585 10.631C26.2087 10.5826 26.1496 10.5446 26.0848 10.5194C26.02 10.4942 25.9508 10.4823 25.8813 10.4843C25.813 10.4843 25.7454 10.4977 25.6823 10.5239C25.6192 10.55 25.5619 10.5883 25.5137 10.6366C25.4654 10.6849 25.4271 10.7422 25.401 10.8053C25.3749 10.8684 25.3615 10.936 25.3615 11.0043V11.0043ZM22.8878 12.3168C22.8875 12.4543 22.9417 12.5863 23.0386 12.6838C23.1355 12.7813 23.2672 12.8363 23.4046 12.8369C23.5424 12.8369 23.6746 12.7821 23.772 12.6847C23.8695 12.5872 23.9242 12.4551 23.9242 12.3173C23.9242 12.1795 23.8695 12.0473 23.772 11.9499C23.6746 11.8524 23.5424 11.7977 23.4046 11.7977C23.2673 11.7981 23.1357 11.8531 23.0389 11.9504C22.942 12.0477 22.8877 12.1795 22.8878 12.3168V12.3168ZM22.8191 14.0936C22.8183 14.2032 22.8392 14.3118 22.8807 14.4132C22.9222 14.5145 22.9833 14.6067 23.0607 14.6843C23.138 14.7619 23.2299 14.8234 23.3311 14.8652C23.4324 14.9071 23.5409 14.9284 23.6504 14.928C23.7603 14.9288 23.8692 14.9078 23.9708 14.8661C24.0725 14.8245 24.1649 14.7631 24.2426 14.6855C24.3203 14.6078 24.3819 14.5156 24.4237 14.414C24.4655 14.3124 24.4867 14.2035 24.4861 14.0936C24.4861 13.6294 24.1158 13.2606 23.6504 13.2606C23.541 13.2601 23.4325 13.2814 23.3314 13.3231C23.2302 13.3649 23.1383 13.4262 23.061 13.5037C22.9837 13.5812 22.9225 13.6732 22.881 13.7745C22.8394 13.8757 22.8184 13.9842 22.8191 14.0936V14.0936ZM21.0956 14.969C21.0956 15.3934 21.4508 15.7477 21.8749 15.7477C22.2986 15.7477 22.6548 15.3934 22.6548 14.969C22.6548 14.5453 22.2986 14.1898 21.8749 14.1898C21.4508 14.1898 21.0956 14.5455 21.0956 14.969ZM21.5603 13.0414C21.5608 13.1862 21.6185 13.3249 21.7209 13.4274C21.8232 13.5298 21.9618 13.5877 22.1066 13.5884C22.2517 13.5881 22.3907 13.5304 22.4934 13.428C22.5961 13.3256 22.6542 13.1867 22.6548 13.0417C22.6542 12.8966 22.5962 12.7576 22.4935 12.6552C22.3908 12.5527 22.2517 12.495 22.1066 12.4947C21.9619 12.4954 21.8233 12.5533 21.7209 12.6556C21.6186 12.758 21.5609 12.8967 21.5603 13.0414V13.0414ZM26.3603 17.2522C26.3603 16.9788 26.6068 16.7463 26.8771 16.7463C27.1786 16.7463 27.411 16.9786 27.411 17.2522C27.411 17.5668 27.1789 17.7855 26.8771 17.7855C26.6068 17.7855 26.3603 17.5668 26.3603 17.2522ZM26.7131 32.9753C26.7816 32.9753 26.8639 33.0157 26.8639 33.2628C26.8639 33.5632 26.7272 33.9592 26.2373 34.2738C25.8952 34.5061 25.4298 34.6981 24.7456 34.7103C24.8547 34.3829 24.9369 34.0408 24.9369 33.714C24.9369 33.6043 24.9239 33.5222 24.91 33.3995H25.0884C26.1688 33.3995 26.6345 32.9753 26.7131 32.9753V32.9753ZM26.8226 31.6216C26.9337 31.5278 26.9593 31.3758 26.9593 31.225V30.9104C26.9593 30.5138 26.3605 30.2821 25.539 30.2821C24.5401 30.2821 24.0069 30.7321 24.0069 30.9239V31.5537C24.0069 31.8136 24.6089 32.0735 25.3476 32.0735C25.9362 32.0735 26.4701 31.9233 26.8229 31.6216H26.8226ZM27.5338 31.7723C27.1782 32.0466 26.3471 32.6601 24.9645 32.6601C24.2258 32.6601 23.8971 32.428 23.7873 32.428C23.6506 32.428 23.4999 32.5646 23.3497 32.743C23.0247 33.1261 22.6004 33.8373 22.6004 34.6159C22.6004 35.1626 23.0247 35.7078 23.8149 35.7078C26.374 35.7078 28.2868 34.1089 28.2868 32.8111C28.2868 32.0735 27.8497 31.7723 27.534 31.7723H27.5338ZM28.013 20.2741C28.013 20.6155 28.1228 21.0121 28.4649 21.0121C28.7517 21.0121 28.9982 20.5752 28.9982 20.0964C28.9982 19.5495 28.9027 19.1251 28.9027 18.9062C28.9027 18.8112 28.9437 18.7702 28.9982 18.7702C29.2036 18.7836 29.3956 19.344 29.6143 19.344C29.861 19.344 30.2274 18.8928 30.3778 18.8928C30.419 18.8928 30.4322 18.9474 30.4322 18.9609C30.4322 19.1663 30.1176 19.6182 30.1176 19.7953C30.1176 19.9454 30.911 19.9732 30.911 20.1098C30.911 20.3151 30.0797 20.3151 29.6831 20.493C29.3 20.6566 29.067 20.862 29.067 21.1354C29.067 21.4087 29.3403 21.4629 29.7243 21.4629C30.6377 21.4629 31.2803 20.9711 31.4849 20.9711C31.5261 20.9711 31.553 20.9987 31.553 21.0399C31.553 21.1766 31.0883 21.6272 31.0883 21.8326C31.0883 22.0648 31.9368 22.3377 31.9233 22.4744C31.9099 22.5156 31.8545 22.529 31.7591 22.529C31.6081 22.529 31.3757 22.4885 31.1974 22.4885C31.0883 22.4885 30.9926 22.5019 30.9509 22.5566C30.8566 22.6664 30.9785 23.3903 30.7884 23.3903C30.6101 23.3903 30.1448 21.778 29.0945 21.778C28.9437 21.778 28.8346 21.9005 28.8346 22.106C28.8346 22.6523 29.3679 23.2812 29.8744 23.5823C30.1038 23.7324 30.4875 23.8832 30.4875 23.9654C30.4875 24.1286 29.6145 23.9789 29.6145 24.2518C29.6145 24.4983 29.7241 24.868 29.7241 25.0862C29.7241 25.1548 29.71 25.2363 29.628 25.2363C29.4642 25.2363 29.067 24.4846 28.8752 24.4846C28.7114 24.4846 28.3558 24.9354 28.2044 24.9354C28.1638 24.9354 28.1369 24.8942 28.1369 24.8545C28.1369 24.5393 28.6426 23.8288 28.6426 23.1311C28.6426 22.803 28.6016 22.0919 28.2044 22.0919C27.8764 22.0919 27.5067 22.611 27.3424 23.1311C27.2468 23.4315 27.3153 24.5937 27.0964 24.5937C26.8912 24.5937 26.9456 23.8147 26.6716 23.8147C26.4699 23.8147 26.0323 24.1837 25.8813 24.1837C25.8544 24.1837 25.8268 24.1696 25.8268 24.1425C25.8268 23.9789 26.2234 23.4456 26.2234 23.3359C26.2234 23.1311 25.3205 23.1042 25.3205 22.9397C25.3205 22.8443 25.6761 22.7755 26.0045 22.7208C26.6998 22.5976 27.7262 22.0917 27.7262 21.3818C27.7262 20.5886 26.9591 20.2465 26.4564 19.9178C26.1961 19.7543 25.9091 19.618 25.9091 19.5082C25.9091 19.3987 26.2375 19.3987 26.3744 19.3987C26.579 19.3987 26.7821 19.385 26.7821 19.2214C26.7821 19.0978 26.7539 18.8524 26.7539 18.6611C26.7539 18.5237 26.768 18.414 26.8233 18.414C27.0279 18.414 27.3153 19.0841 27.452 19.0841C27.6711 19.0841 27.972 18.5374 28.1779 18.5374C28.2454 18.5374 28.2729 18.5788 28.2729 18.7016C28.2729 19.2071 28.013 19.7812 28.013 20.2741V20.2741ZM21.4916 16.2681C21.6426 17.4301 23.2022 16.8422 23.2022 18.2504C23.2022 18.4556 23.1477 18.7567 23.1477 19.0153C23.1477 19.3169 23.1746 19.577 23.4046 19.577C23.6367 19.577 23.6921 19.4128 23.6921 19.1939C23.6921 18.9743 23.637 18.7014 23.637 18.5513C23.637 18.0725 23.9791 17.9634 24.1843 17.9634C24.705 17.9634 25.1016 18.4968 25.8813 18.4968C25.7036 19.3716 23.8969 19.1386 23.8969 20.0964C23.8969 20.5752 24.3763 20.6837 24.6909 20.6837C24.9784 20.6837 25.0747 20.6425 25.0747 20.3973C25.0747 20.26 25.0465 20.1098 25.0465 20.0142C25.0463 19.9997 25.049 19.9853 25.0545 19.9718C25.06 19.9584 25.0681 19.9462 25.0784 19.936C25.0887 19.9258 25.1009 19.9177 25.1143 19.9123C25.1278 19.9068 25.1422 19.9042 25.1567 19.9044C25.4578 19.9044 26.9322 21.0258 26.9322 21.3677C26.9322 21.6816 25.3749 21.9962 24.9237 21.9962C24.787 21.9962 24.7595 21.9008 24.7595 21.8461C24.7595 21.7504 24.9918 21.4629 24.9918 21.2992C24.9918 21.1766 24.787 21.0944 24.239 21.0944C23.9791 21.0944 23.7877 21.1213 23.7877 21.3274C23.7877 21.6957 24.3898 22.147 24.3898 22.4885C24.3898 22.7618 24.2255 22.9263 23.7877 22.9263C23.4181 22.9263 22.8601 22.6388 22.8601 22.1604C22.8601 21.778 23.2543 21.3955 23.2543 21.1631C23.2543 21.0944 23.2022 20.9846 23.038 20.9846C22.5316 20.9846 22.3947 22.3242 20.6027 22.4744C20.8904 22.2151 21.1362 21.9281 21.1362 21.3408C21.1362 21.0534 21.0681 20.8201 21.0681 20.5064C21.0681 20.0964 21.2594 19.8909 21.5328 19.8909C22.0387 19.8909 22.2845 20.6014 22.6136 20.6014C22.7922 20.6014 22.9833 20.4383 22.9833 20.1918C22.9833 19.1527 20.9859 19.303 20.9859 17.8401C20.9859 17.4435 21.1221 16.9517 21.4918 16.2681" fill="#0F0E9A"/>
<path d="M24.0933 25.1546C24.0933 25.3457 24.23 25.4967 24.4218 25.4967C24.6409 25.4967 24.778 25.3047 24.778 25.0858C24.778 24.7994 24.5176 24.4024 24.271 24.4024C24.1612 24.4024 24.2031 24.5666 24.1749 24.7443C24.1612 24.8805 24.0933 25.0448 24.0933 25.1543V25.1546ZM23.3821 23.3363C24.8183 23.6097 25.5983 24.6899 25.5983 25.7015C25.5983 26.399 25.1607 27.0403 24.3942 27.0403C23.6965 27.0403 23.1932 26.5628 23.1932 25.7965C23.1932 25.2225 23.6414 24.6211 23.6414 24.0331C23.6414 23.801 23.5733 23.5684 23.3821 23.3361V23.3363ZM21.565 25.6609C21.701 25.7965 21.7429 25.9338 21.7429 26.0705C21.7429 26.2757 21.647 26.4946 21.647 26.727C21.647 27.0546 21.893 27.342 22.2479 27.342C22.6317 27.342 22.8923 27.0405 22.8923 26.6866C22.8923 26.1666 22.3571 25.6609 21.565 25.6609ZM26.0912 24.786C26.1868 24.935 26.2278 25.0858 26.2278 25.2225C26.2278 25.6058 25.9679 25.9607 25.9679 26.358C25.9679 26.8092 26.3101 27.1776 26.8275 27.1776C27.3885 27.1776 27.7716 26.727 27.7716 26.1937C27.7716 25.4691 27.1152 24.8541 26.0912 24.786V24.786ZM21.893 24.0603C22.5226 24.1423 22.6734 24.3612 22.6734 24.5397C22.6734 24.84 22.3994 24.935 22.1388 24.935C21.9475 24.935 21.7288 24.8946 21.4962 24.8946C21.1953 24.8946 20.8948 24.9626 20.6484 25.2502C20.8263 25.2778 21.0862 25.4004 21.0862 25.6744C21.0862 26.4671 18.8846 25.8106 18.8846 27.8482C18.8846 28.9279 20.0058 30.1045 21.701 30.1045C22.577 30.1045 23.1381 29.817 23.1381 29.4883C23.1381 29.2291 22.6734 29.4063 22.6734 29.1874C22.6734 29.0917 22.8369 28.9134 22.8369 28.7631C22.8369 28.6962 22.7825 28.573 22.6734 28.573C22.4263 28.573 21.9616 28.9685 21.0174 28.9685C20.2793 28.9685 19.5545 28.5455 19.5545 27.971C19.5545 27.8484 19.6092 27.7792 19.6912 27.7792C19.7736 27.7792 19.8825 27.8343 19.9782 27.8343C20.0611 27.8343 20.0745 27.7792 20.0745 27.6289C20.0745 27.4787 20.0745 27.0544 20.3338 27.0544C20.5937 27.0544 21.0862 28.012 22.9743 28.012C23.601 28.012 24.8183 27.8888 25.2705 27.4787C25.2564 28.9826 24.0798 30.9646 21.6194 30.9646C19.0629 30.9646 17.695 28.9134 17.695 27.027C17.695 24.935 19.4037 23.0356 21.7427 23.0356C22.3436 23.0356 22.8506 23.2398 22.8506 23.4999C22.8506 23.8561 21.9616 23.6372 21.893 24.0603V24.0603ZM13.0471 8.44779C13.9497 8.44779 14.359 9.22707 14.359 10.102C14.359 10.4845 14.2506 11.0455 14.0727 11.0455C13.895 11.0455 13.9221 10.731 13.895 10.4435C13.8674 10.0749 13.7995 9.9929 13.6761 9.9929C13.4433 9.9929 13.2936 10.5392 13.2936 11.0455C13.2936 11.3595 13.3483 11.7155 13.5941 11.7155C13.7307 11.7155 13.854 11.6469 13.9355 11.5647C13.8809 12.1938 13.4155 12.7412 12.7597 12.7412C11.5567 12.7412 11.1055 11.3323 10.9688 10.5121C10.2442 11.2779 9.57467 11.8387 8.37125 11.8387C7.2505 11.8387 6.74414 11.0186 6.74414 10.2394C6.74414 10.0063 6.82615 9.40497 7.11382 9.40497C7.4553 9.40497 7.15504 10.5255 7.82433 10.5255C7.98856 10.5255 8.28903 10.3888 8.45348 9.93823C8.54894 9.66422 8.60426 9.37785 8.60426 9.1314C8.60426 8.76172 8.52182 8.53002 8.24911 8.53002C8.01611 8.53002 7.72865 8.70726 7.63298 8.80294C7.96166 7.81821 8.75439 7.3125 9.62869 7.3125C10.7095 7.3125 11.2834 8.27011 11.2834 9.3362C11.2834 9.48632 11.2693 9.65077 11.2421 9.8009C11.7071 9.03507 12.3501 8.44779 13.0471 8.44779V8.44779ZM11.9939 10.0608C11.9939 9.82867 11.9394 9.774 11.8847 9.774C11.7481 9.774 11.5979 9.93823 11.379 10.3073C11.4066 10.7997 11.4888 11.0184 11.6255 11.0184C11.7752 11.0184 11.9939 10.539 11.9939 10.0608V10.0608ZM10.1209 10.6212C10.2711 10.6212 10.4631 10.457 10.8186 10.0608C10.8462 9.88291 10.8462 9.71868 10.8462 9.51409C10.8462 9.24074 10.7364 8.93961 10.5728 8.93961C10.1619 8.93961 9.95715 10.0339 9.95715 10.3216C9.95715 10.4845 10.0387 10.6212 10.1209 10.6212V10.6212ZM12.3501 11.8387C12.6916 11.8387 13.074 10.5255 13.074 9.70522C13.074 9.52733 13.0471 9.33641 12.9649 9.33641C12.6775 9.33641 12.1991 10.69 12.1991 11.428C12.1991 11.7155 12.2679 11.8387 12.3501 11.8387ZM9.00062 11.0865C9.46533 11.0865 9.9975 8.57102 9.9975 8.14688C9.9975 8.03711 9.95693 7.95488 9.86147 7.95488C9.43777 7.95488 8.84984 10.3478 8.84984 10.8811C8.84984 10.9774 8.87739 11.0865 9.00062 11.0865" fill="#0F0E9A"/>
<path d="M10.4856 12.1275C9.89766 12.1275 9.87075 12.8393 9.87075 14.274C9.4336 13.3309 8.70878 12.3193 7.86094 12.3193C7.28711 12.3193 7.06821 12.7027 7.06821 13.3715C7.06821 13.5088 7.08166 13.7143 7.10943 13.8362C7.17734 13.6045 7.39689 13.5088 7.66959 13.5088C8.25752 13.5088 8.9689 13.9594 9.43339 14.5749C8.90013 14.4795 8.38032 14.3838 7.94295 14.3838C7.66959 14.3838 7.42314 14.4113 7.21834 14.507C6.82176 14.6841 6.2885 15.272 6.2885 16.161C6.2885 16.2977 6.3026 16.4478 6.33015 16.6123C6.80831 15.5456 8.07984 15.0672 8.90013 15.0672C9.06436 15.0672 9.18715 15.0809 9.28261 15.0943C8.85912 15.4768 8.76345 16.1476 8.7359 16.5982C8.72244 16.8171 8.64022 16.8312 8.49009 16.8312C8.49009 17.2818 8.84567 17.9524 8.84567 18.2939C8.84567 18.4164 8.7769 18.5262 8.70899 18.5538C8.70899 19.1554 9.31038 19.5929 9.31038 19.9756C9.31038 20.0711 9.28261 20.1535 9.2416 20.1945C9.28282 20.441 9.9443 20.8547 10.03 21.0619C10.135 21.314 10.2532 21.357 10.3218 21.357C10.5541 21.357 10.9227 21.0827 10.9227 20.8369C10.9227 20.7549 10.8546 20.659 10.8006 20.618C10.5407 20.4269 10.4036 20.0166 10.2942 19.7433C10.1981 19.7433 10.0743 19.7027 10.0313 19.5422C9.95645 19.2588 9.95276 18.7317 9.84298 18.4164C9.66509 18.3761 9.58308 18.3073 9.58308 17.9391C9.58308 17.7606 9.69286 17.0635 9.69286 16.8171C9.61063 16.8171 9.50151 16.7624 9.50151 16.598C9.50151 16.161 9.93931 15.8191 10.0619 15.2585C10.8418 15.8324 11.0325 16.4203 11.0325 16.9403C11.0325 17.213 10.9913 17.4736 10.9368 17.72C11.5113 17.4326 12.3726 17.0089 12.3726 16.1476C12.3726 15.6412 12.1405 15.0809 10.5954 14.8619C11.0735 14.6841 11.6758 14.589 12.1813 14.589C13.0562 14.589 13.5619 14.8619 13.671 15.4768C13.8489 15.2041 13.9863 14.8889 13.9863 14.6025C13.9863 13.9319 13.4246 13.4947 12.7141 13.4947C11.8803 13.4947 11.1421 13.9319 10.3489 14.4658C10.7051 13.7277 10.9503 13.2899 11.3881 13.2899C11.4566 13.2899 11.5254 13.304 11.5933 13.3175C11.4291 12.7161 10.8143 12.1275 10.4856 12.1275V12.1275ZM33.5214 21.9848C34.2056 21.9848 34.7524 22.8739 34.7524 23.913C34.7524 25.0195 34.2325 26.2231 33.3055 27.0427C33.2914 25.198 31.0328 25.786 31.0328 24.4459C31.0328 23.8718 31.4437 23.4887 31.9366 23.4887C32.3748 23.4887 32.7163 23.6119 32.9627 23.8584C32.7163 23.6262 32.5931 23.2973 32.5931 22.9836C32.5931 22.463 32.9217 21.9848 33.5214 21.9848V21.9848ZM23.3775 7.99857C23.2675 7.82067 22.8599 7.72586 22.6685 7.72586C22.0659 7.72586 21.6558 8.14956 21.5736 8.53269C21.5191 8.39537 21.4775 8.23157 21.4775 8.06734C21.4775 7.46596 21.8882 6.72768 22.8877 6.72768C23.7604 6.72768 24.1019 7.19239 24.2258 7.19239C24.362 7.19239 24.4992 7.05506 24.6089 7.05506C24.7593 7.05506 24.7593 7.28806 24.7593 7.45251C24.7593 7.99857 24.5135 8.94229 23.8973 9.2842C23.7876 9.05142 23.5687 8.79195 23.2155 8.62837C23.1745 8.61207 23.1395 8.58367 23.1151 8.54697C23.0907 8.51027 23.078 8.46699 23.0788 8.42292C23.0788 8.27279 23.2155 8.08079 23.3773 7.99857H23.3775ZM21.3137 8.99675C21.6695 9.33888 21.9832 9.48922 22.3663 9.48922C22.5178 9.48922 22.6957 9.44865 22.7918 9.44865C22.9146 9.44865 22.9966 9.50245 22.9966 9.59835C22.9966 9.74891 22.8599 9.99493 22.6957 10.132C22.8599 10.2002 23.0378 10.2279 23.2296 10.2279C24.0062 10.2279 24.8957 9.73481 24.8957 8.50514C25.0602 8.72339 25.1565 9.17508 25.1565 9.37988C25.1565 10.8703 24.0616 11.4441 23.0519 11.4441C22.3945 11.4441 22.0659 11.2252 21.9832 11.2252C21.7244 11.2252 21.738 11.7453 21.5602 11.7316C21.2451 11.6771 20.9588 10.9794 20.9588 10.2412C20.9588 9.80358 21.0679 9.33866 21.3137 8.99675V8.99675ZM9.61063 0.301671C9.61063 0.219448 9.2006 0.137441 8.64022 0.137441C7.75182 0.137441 7.87439 0.876151 7.19144 0.876151C6.48028 0.876151 6.65753 0.109672 5.75524 0.109672C5.2081 0.109672 4.70304 0.205997 4.70304 0.32879C4.70304 0.49302 5.34543 0.424898 5.34543 0.876151C5.34543 1.35431 3.96477 1.49163 3.96477 1.77866C3.96477 1.87368 4.07324 1.91468 4.20992 1.91468C4.51104 1.91468 4.98941 1.77844 5.33154 1.77844C5.52332 1.77844 5.701 1.81901 5.701 1.99691C5.701 2.33882 4.96229 2.95452 4.96229 3.22787C4.96229 3.3101 5.03042 3.33765 5.09897 3.33765C5.37233 3.33765 5.83725 2.63994 6.27483 2.63994C6.99944 2.63994 6.5215 4.18483 6.91743 4.18483C7.32812 4.18483 7.15044 2.66684 7.73772 2.66684C8.21717 2.66684 8.5721 3.71948 8.90013 3.71948C8.98235 3.71948 9.05091 3.65157 9.05091 3.55525C9.05091 3.26887 8.64022 2.68029 8.64022 2.29781C8.64022 2.06546 8.80445 1.95569 9.02335 1.95569C9.33728 1.95569 9.76163 2.14703 9.99311 2.14703C10.0756 2.14703 10.1576 2.12013 10.1576 2.02446C10.1576 1.69643 8.94113 1.34085 8.94113 0.917154C8.94113 0.49302 9.61063 0.49302 9.61063 0.301671V0.301671ZM12.8239 1.69643C12.8239 1.94224 13.6851 2.47571 14.0819 2.47571C14.3136 2.47571 14.3822 2.16114 14.3822 1.83246C14.3822 1.42286 14.2052 1.40941 13.8489 1.40941C13.3983 1.40941 12.8239 1.53264 12.8239 1.69643V1.69643ZM14.2462 4.40308C14.2462 3.58302 12.0274 2.09301 12.0036 1.45041C12.0012 1.39184 12.0331 1.33326 12.0825 1.28076C12.4629 0.88049 14.0407 0.588043 14.0407 0.246566C14.0407 0.0693195 13.7123 0.0693194 13.5478 0.0693194C12.2769 0.0693194 10.4175 0.534023 10.4175 0.985276C10.4175 1.45063 12.0851 2.58527 12.0851 3.14565C12.0851 3.29643 11.9895 3.3511 11.8387 3.3511C11.3744 3.3511 10.3624 2.79007 9.88399 2.79007C9.6653 2.79007 9.58308 2.94042 9.58308 3.1591C9.58308 3.8158 10.3624 5.05957 10.3624 5.42838C10.3624 5.46938 10.3489 5.52384 10.2942 5.52384C10.0478 5.52384 8.88668 4.15728 8.47599 4.15728C8.32565 4.15728 8.31219 4.36208 8.31219 4.66299V5.12791C8.31219 5.44248 8.29809 5.6334 8.14862 5.6334C7.79282 5.6334 7.62794 4.63543 7.28733 4.63543C6.93154 4.63543 6.86298 6.41289 6.5215 6.41289C6.1247 6.41289 6.46683 4.45775 6.0837 4.45775C5.66 4.45775 5.1812 5.75684 4.88029 5.75684C4.77116 5.75684 4.74404 5.64706 4.74404 5.55139C4.74404 5.15546 4.97575 4.51286 4.97575 4.13038C4.97575 3.93838 4.92129 3.82925 4.7575 3.82925C4.33336 3.82925 3.4033 4.51286 3.04838 4.51286C2.9937 4.51286 2.92558 4.4853 2.92558 4.43063C2.92558 4.10282 4.41537 3.06364 4.41537 2.59894C4.41537 2.14703 2.36412 2.44859 2.36412 1.92857C2.36412 1.49163 3.82809 1.03973 3.82809 0.589128C3.82831 0.191895 2.0912 0.0146484 1.42191 0.0146484C0.614431 0.0146484 0.177931 0.109672 0.177931 0.342674C0.177931 0.69847 2.00984 0.808029 2.00984 1.12195C2.00984 1.42286 0.109375 2.22926 0.109375 2.69396C0.109375 3.10465 2.78825 2.72151 2.78825 3.14565C2.78825 3.61035 0.451286 5.61951 0.451286 6.28966C0.451286 6.44044 0.561062 6.50835 0.710539 6.50835C1.42191 6.50835 3.26663 5.15546 3.77298 5.15546C3.95088 5.15546 3.96477 5.37371 3.96477 5.56484C3.96477 5.92107 3.84154 6.46735 3.84154 6.86414C3.84154 7.17872 3.92398 7.3974 4.19668 7.3974C4.70304 7.3974 5.16774 6.53612 5.50922 6.53612C5.94637 6.53612 5.68755 9.06509 6.34361 9.06509C6.90398 9.06509 7.13634 6.33067 7.49126 6.33067C7.84749 6.33067 8.13495 7.12405 8.46232 7.12405C8.87236 7.12405 8.68144 5.74339 9.11903 5.74339C9.59718 5.74339 10.9637 7.38395 11.5799 7.38395C11.7708 7.38395 11.8387 7.23317 11.8387 7.04117C11.8387 6.31722 10.8277 4.67709 10.8277 4.15728C10.8277 4.0206 10.8681 3.97938 11.0184 3.97938C11.5523 3.97938 13.1109 4.71766 13.8489 4.71766C14.0954 4.71766 14.2462 4.58098 14.2462 4.40308V4.40308ZM1.76296 3.61035C1.76296 3.88371 0.724424 4.79923 0.355829 4.79923C0.219151 4.79923 0.177931 4.63543 0.177931 4.4853C0.177931 4.21238 0.300724 3.82925 0.451503 3.70603C0.62875 3.5418 1.03878 3.46087 1.35336 3.46087C1.54406 3.46087 1.76296 3.50079 1.76296 3.61057V3.61035ZM11.812 5.01856C11.812 5.49694 13.5211 7.83455 13.8492 7.83455C14.1232 7.83455 14.3273 7.3564 14.3273 6.9455C14.3273 6.83703 14.3004 6.7279 14.2464 6.64524C13.9999 6.30377 12.2637 4.93656 11.8806 4.93656C11.8389 4.93656 11.8118 4.97778 11.8118 5.01856H11.812ZM33.7674 0.876368C33.7674 1.06707 33.9178 1.21719 34.1095 1.21719C34.1545 1.21768 34.1991 1.20922 34.2407 1.1923C34.2823 1.17537 34.3202 1.15033 34.352 1.11862C34.3839 1.08691 34.4091 1.04918 34.4262 1.00763C34.4433 0.96607 34.452 0.921523 34.4517 0.876585C34.4517 0.684585 34.3009 0.53424 34.1095 0.53424C34.0645 0.533746 34.0198 0.542258 33.978 0.559277C33.9363 0.576296 33.8984 0.601478 33.8665 0.633346C33.8346 0.665215 33.8095 0.703127 33.7924 0.744859C33.7754 0.786591 33.7669 0.831302 33.7674 0.876368V0.876368ZM31.5393 3.89759C31.5393 2.92653 29.2171 2.68051 29.2171 2.46183C29.2171 2.28458 30.5145 1.98302 31.184 1.96935C30.1589 0.657467 28.6973 0.794144 28.6973 0.561792C28.6973 0.424464 29.7916 0.151109 30.8019 0.151109C31.6493 0.151109 32.4425 0.342458 32.4425 0.984842C32.4425 1.34107 32.1557 1.7101 32.1557 2.25703C32.1557 2.55815 32.3054 2.81741 32.7031 2.81741C33.1274 2.81741 33.2231 2.36615 33.2231 1.88735C33.2231 1.49142 33.1543 1.19029 33.1543 0.998944C33.1543 0.424464 33.5485 0.0422009 34.1095 0.0422009C34.5749 0.0422009 34.684 0.246783 35.3683 0.246783C34.9986 0.465684 34.8623 0.862917 34.8623 1.05361C34.8623 1.62809 35.232 2.02468 35.232 3.20054C35.232 5.35982 33.209 6.12565 30.7334 6.12565C30.0522 6.12565 29.3269 6.07098 28.6151 5.96186C28.506 5.94841 28.4784 5.92064 28.4784 5.85273C28.4784 5.6744 29.4501 5.57872 29.4501 4.70442C29.4501 4.36229 29.3404 4.03427 29.3404 3.91104C29.3404 3.84314 29.395 3.80192 29.4501 3.80192C29.6556 3.80192 30.0663 4.59465 30.8295 4.59465C31.0332 4.59465 31.5396 4.52609 31.5396 3.89759H31.5393ZM33.849 2.51693C33.849 3.73336 32.9632 4.66342 31.361 4.92289C31.5396 4.93612 31.7038 4.93612 31.868 4.93612C33.7399 4.93612 34.4241 4.08894 34.4241 3.37843C34.4241 2.98164 34.205 2.62606 33.849 2.51715V2.51693ZM32.9081 20.1394C33.1272 19.456 33.4012 18.977 33.8494 18.239C33.4012 18.0073 32.2106 17.5144 32.2106 16.7073C32.2106 15.7645 33.3871 15.0264 33.6305 15.0264C33.7396 15.0264 33.7672 15.1219 33.7672 15.2998C33.7672 15.7916 33.5348 16.5847 33.5348 17.0084C33.5348 17.3911 33.7813 17.7608 34.0002 17.7608C34.2323 17.7608 34.8756 16.9405 34.8756 16.1337C34.8756 14.6836 33.603 14.2465 33.2094 14.2465C32.8395 14.2465 32.1696 14.8481 30.5963 14.8481C27.6579 14.8481 26.9871 11.937 26.9871 10.6649C26.9871 10.6104 27.0006 10.5963 27.0142 10.5963C27.0828 10.5963 27.3702 10.9525 28.3003 10.9525C28.7791 10.9525 29.2169 10.8293 29.9153 10.8293C31.5532 10.8293 32.2787 11.9646 33.2914 13.4127C33.9039 13.7954 35.3685 14.4107 35.3685 16.1472C35.3685 17.6786 33.7396 18.5264 33.3461 20.1666C33.9726 20.0991 34.3423 18.977 34.9847 18.977C35.3134 18.977 35.4642 19.2369 35.4642 19.6478C35.4642 20.2488 35.122 21.1517 34.4649 21.7121C34.479 21.6568 34.479 21.5889 34.479 21.5066C34.479 21.1242 34.3289 20.5779 33.8904 20.5779C33.2092 20.5779 32.9899 21.3155 32.6072 21.9303C32.2106 20.5367 31.6765 19.2782 30.7201 18.5123C29.7515 17.733 28.0814 18.1567 28.0814 16.7351C28.0814 16.352 28.3279 15.8057 28.3279 15.3679C28.3279 15.2177 28.3003 15.0808 28.2183 14.9713C29.5321 15.4642 29.0666 16.3383 29.8741 17.2408C30.3774 17.8153 31.7723 18.3622 32.5803 20.7274C32.5933 20.6588 32.6072 20.4816 32.6072 20.3583C32.6072 18.3346 29.9287 16.352 29.6964 15.5317C31.2523 15.7096 31.5257 16.0925 32.265 18.1433C32.4154 18.5676 32.9083 19.6203 32.9083 20.1394H32.9081ZM32.5525 13.5084C32.5525 13.2214 31.8268 13.1945 31.7587 12.3877C31.7446 12.2644 31.7042 12.0462 31.5534 12.0462C31.307 12.0462 31.4981 12.7979 31.2248 12.7979C30.5963 12.7979 30.3917 11.5674 30.1587 11.5674C30.1034 11.5674 30.0385 11.6086 30.0385 11.7728C30.0385 11.9229 30.066 12.0193 30.066 12.1959C30.066 12.3742 30.0248 12.4968 29.8606 12.4968C29.4909 12.4968 29.1629 11.6361 28.8479 11.6361C28.7791 11.6361 28.7112 11.6771 28.7112 11.7453C28.7112 11.9095 28.9846 12.21 28.9846 12.3608C28.9846 12.6888 28.0955 12.5109 28.0955 12.7845C28.0955 12.9077 28.2183 12.948 28.3825 12.948C28.67 12.948 29.1219 12.8255 29.3542 12.8255C29.4909 12.8255 29.6964 12.853 29.6964 13.0303C29.6964 13.2214 29.2039 13.4674 29.2039 13.6451C29.2039 13.7273 29.2863 13.7677 29.3542 13.7677C29.7239 13.7677 30.3776 13.1259 30.8427 13.1259C30.9243 13.1259 31.1291 13.1669 31.1291 13.2902C31.1291 13.4674 30.6648 13.7813 30.6648 14.0412C30.6648 14.1098 30.706 14.192 30.7883 14.192C31.0328 14.192 31.3614 13.5494 31.8268 13.5494C32.0051 13.5494 32.265 13.6182 32.4017 13.6182C32.5117 13.6182 32.5527 13.5494 32.5527 13.5084" fill="#0F0E9A"/>
<path d="M22.367 5.31741C22.5866 5.31741 22.6276 5.8511 22.6692 6.16502C22.6964 6.32947 22.7239 6.34292 22.7927 6.34292C22.9569 6.34292 23.2162 5.71377 23.3915 5.71377C23.6509 5.71377 24.3493 6.43838 25.5121 6.43838C27.1657 6.43838 28.7254 5.27619 28.7254 3.22602C28.7254 1.24398 27.3293 0.0815726 25.4024 0.0815726C24.4866 0.0815726 23.8152 0.532825 23.4596 0.532825C23.2437 0.546276 22.9151 0 22.7508 0C22.6829 0 22.6141 0.136027 22.6141 0.368378C22.6141 0.519375 22.6141 0.997529 22.4499 0.997529C22.1206 0.997529 20.8497 0.054671 20.8497 0.396148C20.8497 0.710723 21.6971 1.66747 21.6971 1.91349C21.6971 2.15994 20.8632 2.39229 20.8632 2.55652C20.8632 2.85699 21.7522 2.91145 21.7522 3.2948C21.7522 3.67728 20.8222 3.97818 20.8222 4.26586C20.8222 4.49756 21.7522 4.33376 21.7522 4.62079C21.7522 4.90781 21.0686 5.86477 21.0686 6.13747C21.0686 6.20624 21.0821 6.20624 21.1367 6.20624C21.396 6.20624 22.1753 5.31719 22.367 5.31719V5.31741ZM22.7649 3.0759C22.7649 2.92555 22.2304 2.63874 22.2304 2.4743C22.2304 2.4474 22.2573 2.43329 22.2991 2.43329C22.4499 2.43329 22.7098 2.4884 22.9153 2.4884C23.0936 2.4884 23.1205 1.72257 23.2548 1.72257C23.3498 1.72257 23.5143 2.4474 23.6657 2.4474C23.8427 2.4474 24.1707 2.24195 24.3081 2.24195C24.3356 2.24195 24.3627 2.25561 24.3627 2.28317C24.3627 2.37862 24.0206 2.74722 24.0206 2.85699C24.0206 2.98022 24.7869 3.13035 24.7869 3.24013C24.7869 3.3768 24.0072 3.36335 24.0072 3.48658C24.0072 3.5816 24.2946 3.96473 24.2946 4.08753C24.2946 4.11508 24.2805 4.12918 24.2534 4.12918C24.1438 4.12918 23.7197 3.93718 23.5963 3.93718C23.4461 3.93718 23.2027 4.49756 23.0795 4.49756C23.0383 4.49756 23.0114 4.44289 23.0114 4.37433L22.9832 3.82762C22.9832 3.77295 22.9569 3.71828 22.8882 3.71828C22.7239 3.71828 22.4087 3.70418 22.3126 3.70418C22.2438 3.70418 22.2169 3.69073 22.2169 3.66383C22.2169 3.55405 22.7649 3.17135 22.7649 3.0759V3.0759ZM25.4304 5.6732C24.4727 5.6732 23.8429 5.19505 23.8429 4.94859C23.8429 4.82537 23.9252 4.74379 24.0349 4.74379C24.3358 4.74379 24.9926 5.20806 25.2115 5.20806C25.2659 5.20806 25.3069 5.18095 25.3069 5.09872C25.3069 4.85227 25.0748 4.44267 25.0748 4.23809C25.0748 4.18342 25.1158 4.14241 25.198 4.14241C25.5668 4.14241 26.115 4.29319 26.4027 4.29319C26.4977 4.29319 26.5246 4.23809 26.5246 4.18342C26.5246 3.88251 25.6356 3.29458 25.6356 3.11668C25.6356 2.95245 26.7409 2.706 26.7409 2.44718C26.7409 2.17317 25.2384 2.36452 25.2384 2.10505C25.2384 1.91327 25.5258 1.58524 25.5258 1.4349C25.5258 1.36634 25.4714 1.33944 25.3757 1.33944C25.2525 1.33944 24.596 1.59934 24.3224 1.59934C24.1851 1.59934 24.0208 1.57179 24.0208 1.38044C24.0208 1.06522 24.5547 0.72374 25.3891 0.72374C26.7409 0.72374 27.5491 1.6538 27.5491 3.21214C27.5491 5.18095 26.1691 5.6732 25.4304 5.6732ZM16.174 29.3254C16.174 29.4486 16.1328 29.5859 16.0233 29.7222C15.8736 29.4488 15.4492 29.3113 15.2574 29.3121C13.8499 29.3121 14.3825 31.3493 12.8786 31.3493C12.2503 31.3493 12.1952 31.267 11.9626 31.267C11.8672 31.267 11.8125 31.3083 11.8125 31.3903C11.8125 31.7465 12.3182 32.6208 13.7266 32.6208C15.1346 32.6208 16.4884 31.76 16.4884 30.6921C16.4884 30.5149 16.4474 30.3248 16.3652 30.1328C16.4198 30.0506 16.5572 29.9962 16.6804 29.9962C16.8986 29.9962 17.0219 30.2426 17.2267 30.2426C17.446 30.2426 17.6098 30.0784 17.6098 29.8595C17.6098 29.6816 17.5143 29.5584 17.3499 29.4755C17.4597 29.3941 17.5412 29.2568 17.5412 29.1067C17.5412 28.8741 17.3774 28.6565 17.1034 28.6565C16.9802 28.6565 16.8986 28.6977 16.803 28.7921C16.7761 28.5469 16.6394 28.3144 16.3793 28.3144C16.174 28.3144 16.0233 28.4647 16.0233 28.6977C16.0233 28.9147 16.174 29.093 16.174 29.3254" fill="#0F0E9A"/>
<path d="M12.4944 29.8454C12.0844 29.8454 11.4687 29.4076 11.4687 29.1611C11.4687 28.9557 11.6607 28.8461 11.8102 28.8461C12.1523 28.8461 12.7671 29.2702 12.7671 29.6258C12.7671 29.7221 12.6986 29.8454 12.4944 29.8454ZM8.67982 26.7829C9.77346 27.0552 10.3204 27.6431 10.4295 28.3415C10.5393 29.0103 10.676 29.5577 10.9354 29.8313C11.2773 30.2151 11.9468 30.5552 12.5354 30.5552C13.0279 30.5552 13.4232 30.3927 13.4232 29.9411C13.4232 29.4486 12.7537 28.3415 11.7692 28.3415C11.6741 28.3415 11.5509 28.3556 11.4142 28.3556C11.291 28.3556 11.1131 28.328 11.0033 28.2324C10.7851 28.0404 10.717 27.0149 10.3063 26.3998C9.85568 25.7164 9.36342 25.5244 8.69392 25.5244C8.21577 25.5244 7.68164 25.7843 7.68164 26.1674C7.68164 26.3998 7.80487 26.5636 8.67982 26.7829Z" fill="#0F0E9A"/>
<path d="M15.5423 25.1141C15.5423 24.4991 14.2702 24.4856 14.2702 23.5556C14.2702 23.3226 14.4209 22.9264 14.7221 22.5023C14.8453 23.2134 15.1321 23.5827 15.7478 23.8155C16.964 24.2661 17.1285 24.9497 17.1285 25.6749C17.1285 26.9061 16.2672 28.4369 14.0526 28.4369C12.2747 28.4369 11.0031 26.851 11.0031 25.5114C11.0031 25.1417 11.0986 24.7314 11.3312 24.7314C11.5364 24.7314 11.6052 24.8952 11.7683 25.0595C12.3844 25.6749 13.0537 25.8387 14.025 25.8387C14.8997 25.8387 15.5423 25.4838 15.5423 25.1141ZM15.5968 26.0986C15.128 26.3134 14.941 26.2765 14.941 26.756C14.941 26.933 14.8997 27.1647 14.8997 27.2879C14.8997 27.4517 14.9273 27.5481 15.118 27.5481C15.6109 27.5481 16.3902 26.7141 16.3902 26.003C16.3902 25.8112 16.2804 25.7303 16.1572 25.7303C16.0474 25.7303 15.9255 25.9485 15.5968 26.0986V26.0986ZM11.2355 19.1947C11.2355 18.3193 13.3138 17.8546 13.3138 16.7744C13.3138 16.5965 13.2457 16.2826 13.1225 16.0498C13.8471 16.4464 14.3799 17.1172 14.3799 17.6632C14.3799 18.607 13.3959 19.0439 13.3959 19.6325C13.3959 20.3161 14.4485 20.4252 14.4485 21.2731C14.4485 21.9695 13.4499 22.7765 13.4499 23.679C13.4499 24.3759 13.9428 24.9497 14.6945 25.0454C14.4485 25.1005 14.2298 25.1417 13.9975 25.1417C12.6161 25.1417 11.1945 24.0075 11.1945 22.6533C11.1945 21.9829 11.4819 21.3963 11.9191 20.9719C12.3022 21.3002 12.6849 21.5189 12.9305 21.5189C13.1496 21.5189 13.2457 21.4097 13.2457 21.2455C13.2457 20.7391 11.2355 20.2751 11.2355 19.1947V19.1947ZM3.30537 25.9483C3.36307 26.4154 3.79827 26.769 4.28988 26.7146C4.46712 26.695 4.63201 26.6458 4.74178 26.5779C4.85091 27.015 5.2182 27.2964 5.71414 27.2313C6.21746 27.1658 6.56024 26.7692 6.50557 26.2627C6.49581 26.154 6.4681 26.0477 6.42356 25.9481C6.42356 25.9481 6.49039 25.9416 6.54072 25.9316C7.03406 25.8383 7.36707 25.4424 7.32607 24.9636C7.2714 24.472 6.82991 24.1066 6.36954 24.163C6.19165 24.1849 6.02677 24.2524 5.91699 24.3487C5.79376 23.9391 5.40825 23.5823 4.8815 23.6699C4.40638 23.7484 4.0918 24.152 4.13975 24.6631C4.14712 24.746 4.16665 24.841 4.20787 24.936L4.07228 24.9562C3.67309 25.0156 3.24028 25.4172 3.30537 25.9483V25.9483ZM5.86015 25.4105C5.86944 25.4789 5.86499 25.5486 5.84705 25.6153C5.82912 25.682 5.79806 25.7445 5.7557 25.7991C5.71334 25.8537 5.66052 25.8993 5.60033 25.9332C5.54014 25.9671 5.4738 25.9887 5.40517 25.9967C5.33654 26.0047 5.26701 25.9989 5.20063 25.9797C5.13426 25.9605 5.07238 25.9283 5.01862 25.8849C4.96485 25.8415 4.92027 25.7878 4.88749 25.727C4.85471 25.6662 4.83438 25.5994 4.82769 25.5307C4.8198 25.4629 4.82534 25.3942 4.84399 25.3285C4.86264 25.2629 4.89404 25.2016 4.9364 25.148C4.97876 25.0945 5.03124 25.0499 5.09085 25.0166C5.15046 24.9834 5.21603 24.9622 5.28383 24.9543C5.35162 24.9465 5.4203 24.952 5.48595 24.9706C5.5516 24.9893 5.61294 25.0207 5.66646 25.0631C5.71997 25.1054 5.76462 25.1579 5.79786 25.2175C5.83109 25.2771 5.85226 25.3427 5.86015 25.4105Z" fill="#0F0E9A"/>
</svg>
